<?xml version="1.0" encoding="UTF-8"?>
<!DOCTYPE svg PUBLIC "-//W3C//DTD SVG 1.1//EN" "http://www.w3.org/Graphics/SVG/1.1/DTD/svg11.dtd">
<svg xmlns="http://www.w3.org/2000/svg" version="1.1" width="1042px" height="833px" style="shape-rendering:geometricPrecision; text-rendering:geometricPrecision; image-rendering:optimizeQuality; fill-rule:evenodd; clip-rule:evenodd" xmlns:xlink="http://www.w3.org/1999/xlink">
<g><path style="opacity:1" fill="#182d45" d="M 591.5,41.5 C 606.61,50.2258 621.943,58.7258 637.5,67C 646.764,71.7998 656.097,76.2998 665.5,80.5C 765.102,132.636 864.769,184.802 964.5,237C 966.394,238.079 966.727,239.413 965.5,241C 893.641,280.094 821.974,319.427 750.5,359C 743.615,362.86 736.448,366.027 729,368.5C 727.893,368.415 726.893,368.081 726,367.5C 730.523,327.499 735.523,287.499 741,247.5C 741.824,244.118 741.657,240.784 740.5,237.5C 646.05,200.652 548.384,188.152 447.5,200C 397.474,206.09 349.141,218.59 302.5,237.5C 301.585,238.328 300.919,239.328 300.5,240.5C 304.633,268.099 308.3,295.766 311.5,323.5C 310.848,324.449 310.514,325.615 310.5,327C 312.442,340.815 314.109,354.648 315.5,368.5C 314.167,368.5 312.833,368.5 311.5,368.5C 234.061,326.612 156.727,284.445 79.5,242C 78.5,241 77.5,240 76.5,239C 223.862,160.434 371.529,82.434 519.5,5C 520.833,4.33333 522.167,4.33333 523.5,5C 546.356,16.9262 569.023,29.0929 591.5,41.5 Z"/></g>
<g><path style="opacity:0.243" fill="#373f4e" d="M 591.5,41.5 C 616.671,53.7025 641.338,66.7025 665.5,80.5C 656.097,76.2998 646.764,71.7998 637.5,67C 621.943,58.7258 606.61,50.2258 591.5,41.5 Z"/></g>
<g><path style="opacity:1" fill="#182d45" d="M 705.5,373.5 C 703.594,380.272 702.094,387.272 701,394.5C 700.261,405.935 698.761,417.269 696.5,428.5C 696.182,429.647 695.516,430.481 694.5,431C 695.456,434.394 695.789,437.894 695.5,441.5C 694.5,441.5 693.5,441.5 692.5,441.5C 594.514,412.747 495.514,408.914 395.5,430C 379.107,434.182 362.774,438.182 346.5,442C 337.965,378.885 329.798,315.718 322,252.5C 322.374,251.584 322.874,250.75 323.5,250C 360.63,235.571 398.964,225.571 438.5,220C 534.531,206.189 628.031,216.022 719,249.5C 720.911,250.782 721.744,252.615 721.5,255C 715.879,294.47 710.546,333.97 705.5,373.5 Z"/></g>
<g><path style="opacity:0.431" fill="#424956" d="M 311.5,323.5 C 313.705,337.681 315.705,351.848 317.5,366C 316.663,367.011 316.33,368.178 316.5,369.5C 314.585,369.784 312.919,369.451 311.5,368.5C 312.833,368.5 314.167,368.5 315.5,368.5C 314.109,354.648 312.442,340.815 310.5,327C 310.514,325.615 310.848,324.449 311.5,323.5 Z"/></g>
<g><path style="opacity:1" fill="#b8933e" d="M 281.5,371.5 C 281.804,372.15 282.137,372.817 282.5,373.5C 290.846,376.636 298.179,381.136 304.5,387C 309.742,389.444 315.076,391.611 320.5,393.5C 321.906,393.973 322.573,394.973 322.5,396.5C 320.723,401.471 321.223,406.138 324,410.5C 325.527,428.597 327.694,446.597 330.5,464.5C 337.738,464.982 344.738,463.982 351.5,461.5C 351.5,460.5 351.5,459.5 351.5,458.5C 364.779,453.762 378.445,450.095 392.5,447.5C 407.101,445.796 421.768,443.796 436.5,441.5C 437.993,440.859 438.993,439.859 439.5,438.5C 439.5,437.833 439.833,437.5 440.5,437.5C 447.998,438.086 455.665,438.253 463.5,438C 465.179,441.297 467.846,442.297 471.5,441C 469.941,440.02 468.274,439.187 466.5,438.5C 467.025,437.808 467.692,437.308 468.5,437C 481.157,436.897 493.823,436.564 506.5,436C 507.77,436.9 508.77,438.066 509.5,439.5C 511.557,444.623 512.724,449.956 513,455.5C 513.383,456.056 513.883,456.389 514.5,456.5C 512.119,469.088 505.786,479.255 495.5,487C 482.117,496.353 468.45,505.186 454.5,513.5C 452.254,514.455 449.921,515.122 447.5,515.5C 447.5,516.5 447.5,517.5 447.5,518.5C 443.618,518.546 440.952,520.379 439.5,524C 435.979,527.33 431.979,530.164 427.5,532.5C 423.19,538.591 418.023,543.924 412,548.5C 411.415,549.998 411.915,550.998 413.5,551.5C 413.5,552.167 413.167,552.5 412.5,552.5C 410.372,553.957 408.038,554.957 405.5,555.5C 403.979,558.75 402.312,562.083 400.5,565.5C 399.086,566.624 397.586,567.624 396,568.5C 393.427,573.575 391.594,578.908 390.5,584.5C 389.372,585.262 388.205,585.929 387,586.5C 384.924,595.382 383.424,604.382 382.5,613.5C 380.435,630.912 382.102,647.912 387.5,664.5C 386.876,664.917 386.543,665.584 386.5,666.5C 387.95,671.047 388.784,675.714 389,680.5C 389.925,681.047 390.758,681.713 391.5,682.5C 395.398,690.07 399.731,697.404 404.5,704.5C 397.528,705.232 390.528,705.232 383.5,704.5C 358.627,703.108 333.627,703.608 308.5,706C 304.351,707.737 300.017,708.737 295.5,709C 293.937,709.759 292.937,710.926 292.5,712.5C 268.152,720.059 245.485,731.059 224.5,745.5C 221.942,744.847 219.775,745.847 218,748.5C 216.915,747.707 215.748,747.04 214.5,746.5C 213.922,740.065 212.255,734.065 209.5,728.5C 205.766,710.429 202.766,692.095 200.5,673.5C 199.453,657.526 197.453,641.693 194.5,626C 194.945,624.553 195.612,623.22 196.5,622C 195.351,620.27 195.351,618.604 196.5,617C 195.283,615.352 194.45,613.519 194,611.5C 193.667,612.5 193.333,613.5 193,614.5C 192.667,610.167 192.333,605.833 192,601.5C 190.154,598.796 188.987,595.796 188.5,592.5C 188.043,591.702 187.376,591.369 186.5,591.5C 186.5,591.167 186.5,590.833 186.5,590.5C 184.841,574.719 182.674,559.053 180,543.5C 179.501,537.843 179.334,532.176 179.5,526.5C 180.5,526.5 181.5,526.5 182.5,526.5C 182.587,521.463 182.254,516.463 181.5,511.5C 179.833,511.5 178.167,511.5 176.5,511.5C 176.662,509.473 176.495,507.473 176,505.5C 171.964,497.357 169.798,488.691 169.5,479.5C 170.5,479.5 171.5,479.5 172.5,479.5C 172.569,474.146 172.902,468.813 173.5,463.5C 170.234,463.433 168.734,465.099 169,468.5C 168.667,468.167 168.333,467.833 168,467.5C 167.667,463.5 167.333,459.5 167,455.5C 165.693,453.808 164.193,452.475 162.5,451.5C 160.205,441.732 158.539,431.732 157.5,421.5C 156.665,414.498 156.165,407.498 156,400.5C 157.996,398.173 160.496,396.673 163.5,396C 165.629,393.561 167.629,391.061 169.5,388.5C 194.068,371.744 221.068,360.411 250.5,354.5C 261.34,359.416 271.673,365.083 281.5,371.5 Z"/></g>
<g><path style="opacity:1" fill="#b8923e" d="M 869.5,385.5 C 869.539,386.583 869.873,387.583 870.5,388.5C 876.349,391.179 881.516,394.845 886,399.5C 886.057,406.824 885.891,414.157 885.5,421.5C 885.678,425.122 885.011,428.456 883.5,431.5C 882.883,431.611 882.383,431.944 882,432.5C 877.851,453.331 874.685,474.331 872.5,495.5C 871.5,495.5 870.5,495.5 869.5,495.5C 868.663,513.025 866.33,530.359 862.5,547.5C 862.511,549.045 862.844,550.378 863.5,551.5C 863.167,552.167 862.833,552.833 862.5,553.5C 861.883,553.611 861.383,553.944 861,554.5C 858.082,564.991 856.415,575.657 856,586.5C 854.81,594.928 853.143,603.261 851,611.5C 850.19,615.358 850.357,619.024 851.5,622.5C 849.93,630.28 848.263,637.947 846.5,645.5C 845.25,645.577 844.417,646.244 844,647.5C 841.166,664.671 838.333,681.837 835.5,699C 834.428,703.122 833.594,707.289 833,711.5C 832.581,712.672 831.915,713.672 831,714.5C 830.826,721.102 829.993,727.602 828.5,734C 829.597,739.493 829.597,744.993 828.5,750.5C 826.784,750.371 825.117,750.038 823.5,749.5C 774.54,714.257 719.873,699.59 659.5,705.5C 659.389,704.883 659.056,704.383 658.5,704C 656.667,703.833 654.833,703.667 653,703.5C 646.227,704.836 639.394,705.67 632.5,706C 631.672,706.915 630.672,707.581 629.5,708C 626.5,708.333 623.5,708.667 620.5,709C 619.833,709.667 619.167,710.333 618.5,711C 615.183,711.498 611.85,711.665 608.5,711.5C 582.769,696.624 560.102,677.957 540.5,655.5C 537.701,651.26 534.868,646.927 532,642.5C 531.304,639.522 530.804,636.522 530.5,633.5C 528.641,633.539 527.308,632.706 526.5,631C 527.299,628.519 527.466,625.686 527,622.5C 526.667,622.833 526.333,623.167 526,623.5C 525.749,621.567 525.249,619.734 524.5,618C 524.833,617.667 525.167,617.333 525.5,617C 522.082,614.01 520.749,610.176 521.5,605.5C 521.817,600.15 522.317,594.816 523,589.5C 525.451,583.75 526.951,577.75 527.5,571.5C 529.911,571.863 531.411,570.863 532,568.5C 533.531,562.793 535.031,557.127 536.5,551.5C 539.808,544.89 543.642,538.556 548,532.5C 559.871,518.768 569.204,503.434 576,486.5C 580.292,469.956 578.792,453.956 571.5,438.5C 571.608,437.558 571.941,436.725 572.5,436C 594.423,436.322 616.089,438.988 637.5,444C 661.777,449.569 685.777,456.069 709.5,463.5C 711.48,462.152 712.647,460.152 713,457.5C 715.309,437.508 717.475,417.508 719.5,397.5C 720.183,393.98 722.183,391.48 725.5,390C 744.489,380.174 763.155,369.841 781.5,359C 785.052,357.205 788.718,355.705 792.5,354.5C 820.124,360.151 845.791,370.485 869.5,385.5 Z"/></g>
<g><path style="opacity:0.882" fill="#b1935c" d="M 281.5,371.5 C 292.027,376.182 302.361,381.349 312.5,387C 315.355,389.031 318.022,391.197 320.5,393.5C 315.076,391.611 309.742,389.444 304.5,387C 298.179,381.136 290.846,376.636 282.5,373.5C 282.137,372.817 281.804,372.15 281.5,371.5 Z"/></g>
<g><path style="opacity:0.161" fill="#444d5d" d="M 705.5,373.5 C 702.582,396.514 699.582,419.514 696.5,442.5C 694.901,442.768 693.568,442.434 692.5,441.5C 693.5,441.5 694.5,441.5 695.5,441.5C 695.789,437.894 695.456,434.394 694.5,431C 695.516,430.481 696.182,429.647 696.5,428.5C 698.761,417.269 700.261,405.935 701,394.5C 702.094,387.272 703.594,380.272 705.5,373.5 Z"/></g>
<g><path style="opacity:0.298" fill="#b09464" d="M 869.5,385.5 C 876.265,389.307 882.431,393.974 888,399.5C 888.777,407.136 887.943,414.47 885.5,421.5C 885.891,414.157 886.057,406.824 886,399.5C 881.516,394.845 876.349,391.179 870.5,388.5C 869.873,387.583 869.539,386.583 869.5,385.5 Z"/></g>
<g><path style="opacity:0.098" fill="#b59661" d="M 169.5,388.5 C 167.629,391.061 165.629,393.561 163.5,396C 160.496,396.673 157.996,398.173 156,400.5C 156.165,407.498 156.665,414.498 157.5,421.5C 155.051,414.805 153.884,407.805 154,400.5C 158.336,395.417 163.503,391.417 169.5,388.5 Z"/></g>
<g><path style="opacity:0.008" fill="#a8a8a8" d="M 415.5,434.5 C 417.337,434.639 417.67,435.306 416.5,436.5C 415.702,436.043 415.369,435.376 415.5,434.5 Z"/></g>
<g><path style="opacity:1" fill="#af924d" d="M 514.5,456.5 C 513.883,456.389 513.383,456.056 513,455.5C 512.724,449.956 511.557,444.623 509.5,439.5C 508.77,438.066 507.77,436.9 506.5,436C 493.823,436.564 481.157,436.897 468.5,437C 467.692,437.308 467.025,437.808 466.5,438.5C 468.274,439.187 469.941,440.02 471.5,441C 467.846,442.297 465.179,441.297 463.5,438C 455.665,438.253 447.998,438.086 440.5,437.5C 462.743,434.523 485.077,433.023 507.5,433C 510.438,435.025 512.272,437.858 513,441.5C 514.25,446.42 514.75,451.42 514.5,456.5 Z"/></g>
<g><path style="opacity:0.431" fill="#b29759" d="M 719.5,397.5 C 717.475,417.508 715.309,437.508 713,457.5C 712.647,460.152 711.48,462.152 709.5,463.5C 712.271,446.599 714.438,429.599 716,412.5C 716.614,407.242 717.781,402.242 719.5,397.5 Z"/></g>
<g><path style="opacity:0.818" fill="#ae8d4c" d="M 439.5,438.5 C 438.993,439.859 437.993,440.859 436.5,441.5C 421.768,443.796 407.101,445.796 392.5,447.5C 407.668,442.447 423.335,439.447 439.5,438.5 Z"/></g>
<g><path style="opacity:0.843" fill="#b19351" d="M 322.5,396.5 C 324.345,400.167 325.512,404.167 326,408.5C 327.107,422.364 329.274,436.03 332.5,449.5C 332.167,450.167 331.833,450.833 331.5,451.5C 332.262,455.111 332.762,458.778 333,462.5C 333.414,462.957 333.914,463.291 334.5,463.5C 340.099,461.53 345.765,459.863 351.5,458.5C 351.5,459.5 351.5,460.5 351.5,461.5C 344.738,463.982 337.738,464.982 330.5,464.5C 327.694,446.597 325.527,428.597 324,410.5C 321.223,406.138 320.723,401.471 322.5,396.5 Z"/></g>
<g><path style="opacity:0.467" fill="#b99f6b" d="M 883.5,431.5 C 880.678,453.104 877.011,474.437 872.5,495.5C 874.685,474.331 877.851,453.331 882,432.5C 882.383,431.944 882.883,431.611 883.5,431.5 Z"/></g>
<g><path style="opacity:0.773" fill="#a28254" d="M 149.5,470.5 C 148.883,470.389 148.383,470.056 148,469.5C 147.654,466.424 146.988,463.424 146,460.5C 144.951,459.483 143.784,459.316 142.5,460C 135.731,465.906 129.564,472.406 124,479.5C 124.551,486.988 125.385,494.488 126.5,502C 126.494,504.033 126.161,505.866 125.5,507.5C 125.102,501.778 124.269,496.111 123,490.5C 122.333,486.5 122.333,482.5 123,478.5C 129.012,469.821 136.346,462.488 145,456.5C 146.653,456.82 147.653,457.82 148,459.5C 148.719,463.145 149.219,466.812 149.5,470.5 Z"/></g>
<g><path style="opacity:0.839" fill="#a47c41" d="M 149.5,471.5 C 154.562,497.247 158.896,523.247 162.5,549.5C 161.778,549.918 161.278,550.584 161,551.5C 159.363,546.286 158.363,540.953 158,535.5C 156.581,533.664 155.414,531.664 154.5,529.5C 155.025,528.808 155.692,528.308 156.5,528C 152.487,509.414 150.154,490.58 149.5,471.5 Z"/></g>
<g><path style="opacity:0.999" fill="#b7944c" d="M 162.5,451.5 C 164.193,452.475 165.693,453.808 167,455.5C 167.333,459.5 167.667,463.5 168,467.5C 168.333,467.833 168.667,468.167 169,468.5C 168.734,465.099 170.234,463.433 173.5,463.5C 172.902,468.813 172.569,474.146 172.5,479.5C 171.5,479.5 170.5,479.5 169.5,479.5C 169.798,488.691 171.964,497.357 176,505.5C 176.495,507.473 176.662,509.473 176.5,511.5C 178.167,511.5 179.833,511.5 181.5,511.5C 182.254,516.463 182.587,521.463 182.5,526.5C 181.5,526.5 180.5,526.5 179.5,526.5C 179.334,532.176 179.501,537.843 180,543.5C 182.674,559.053 184.841,574.719 186.5,590.5C 177.957,544.39 169.957,498.057 162.5,451.5 Z"/></g>
<g><path style="opacity:0.278" fill="#b39b65" d="M 454.5,513.5 C 439.526,524.809 425.86,537.476 413.5,551.5C 411.915,550.998 411.415,549.998 412,548.5C 418.023,543.924 423.19,538.591 427.5,532.5C 431.979,530.164 435.979,527.33 439.5,524C 440.952,520.379 443.618,518.546 447.5,518.5C 447.5,517.5 447.5,516.5 447.5,515.5C 449.921,515.122 452.254,514.455 454.5,513.5 Z"/></g>
<g><path style="opacity:0.118" fill="#b79e64" d="M 872.5,495.5 C 869.685,514.203 866.685,532.87 863.5,551.5C 862.844,550.378 862.511,549.045 862.5,547.5C 866.33,530.359 868.663,513.025 869.5,495.5C 870.5,495.5 871.5,495.5 872.5,495.5 Z"/></g>
<g><path style="opacity:1" fill="#a67e49" d="M 126.5,508.5 C 127.547,510.151 128.714,511.817 130,513.5C 131.093,520.152 132.093,526.819 133,533.5C 133.915,534.328 134.581,535.328 135,536.5C 135.555,542.829 136.055,549.162 136.5,555.5C 136.497,558.025 136.163,560.359 135.5,562.5C 132.284,544.536 129.284,526.536 126.5,508.5 Z"/></g>
<g><path style="opacity:0.957" fill="#b09758" d="M 412.5,552.5 C 396.884,570.065 386.884,590.399 382.5,613.5C 383.424,604.382 384.924,595.382 387,586.5C 388.205,585.929 389.372,585.262 390.5,584.5C 391.594,578.908 393.427,573.575 396,568.5C 397.586,567.624 399.086,566.624 400.5,565.5C 402.312,562.083 403.979,558.75 405.5,555.5C 408.038,554.957 410.372,553.957 412.5,552.5 Z"/></g>
<g><path style="opacity:0.431" fill="#b89d61" d="M 862.5,553.5 C 859.157,576.556 855.491,599.556 851.5,622.5C 850.357,619.024 850.19,615.358 851,611.5C 853.143,603.261 854.81,594.928 856,586.5C 856.415,575.657 858.082,564.991 861,554.5C 861.383,553.944 861.883,553.611 862.5,553.5 Z"/></g>
<g><path style="opacity:0.176" fill="#ab895c" d="M 166.5,572.5 C 171.268,593.515 174.934,614.848 177.5,636.5C 175.705,632.48 174.538,628.147 174,623.5C 171.56,606.472 169.06,589.472 166.5,572.5 Z"/></g>
<g><path style="opacity:0.512" fill="#aa8559" d="M 150.5,639.5 C 145.626,618.454 141.626,597.121 138.5,575.5C 138.81,574.262 139.31,574.262 140,575.5C 141.874,588.703 144.707,601.703 148.5,614.5C 149.688,622.793 150.354,631.126 150.5,639.5 Z"/></g>
<g><path style="opacity:0.999" fill="#b49450" d="M 186.5,591.5 C 187.376,591.369 188.043,591.702 188.5,592.5C 188.987,595.796 190.154,598.796 192,601.5C 192.333,605.833 192.667,610.167 193,614.5C 193.333,613.5 193.667,612.5 194,611.5C 194.45,613.519 195.283,615.352 196.5,617C 195.351,618.604 195.351,620.27 196.5,622C 195.612,623.22 194.945,624.553 194.5,626C 197.453,641.693 199.453,657.526 200.5,673.5C 195.42,646.358 190.754,619.024 186.5,591.5 Z"/></g>
<g><path style="opacity:0.22" fill="#aa885e" d="M 877.5,562.5 C 874.939,579.475 872.439,596.475 870,613.5C 869.434,615.723 868.6,617.723 867.5,619.5C 870.087,600.245 873.421,581.245 877.5,562.5 Z"/></g>
<g><path style="opacity:1" fill="#b1904a" d="M 536.5,551.5 C 535.031,557.127 533.531,562.793 532,568.5C 531.411,570.863 529.911,571.863 527.5,571.5C 526.951,577.75 525.451,583.75 523,589.5C 522.317,594.816 521.817,600.15 521.5,605.5C 520.749,610.176 522.082,614.01 525.5,617C 525.167,617.333 524.833,617.667 524.5,618C 525.249,619.734 525.749,621.567 526,623.5C 526.333,623.167 526.667,622.833 527,622.5C 527.466,625.686 527.299,628.519 526.5,631C 527.308,632.706 528.641,633.539 530.5,633.5C 530.804,636.522 531.304,639.522 532,642.5C 534.868,646.927 537.701,651.26 540.5,655.5C 520.779,635.484 514.613,611.817 522,584.5C 525.252,572.675 530.085,561.675 536.5,551.5 Z"/></g>
<g><path style="opacity:1" fill="#a67c42" d="M 915.5,473.5 C 913.173,473.753 911.173,473.086 909.5,471.5C 906.333,466.693 902.333,462.693 897.5,459.5C 897.167,460.333 896.833,461.167 896.5,462C 898.078,465.333 898.745,468.666 898.5,472C 896.951,473.214 895.785,474.714 895,476.5C 894.221,483.117 892.554,489.45 890,495.5C 889.501,500.823 889.334,506.156 889.5,511.5C 888.5,511.5 887.5,511.5 886.5,511.5C 885.243,520.093 884.409,528.76 884,537.5C 879.455,563.31 875.455,589.31 872,615.5C 869.43,623.659 867.263,631.993 865.5,640.5C 865.608,641.442 865.941,642.275 866.5,643C 865.296,644.353 864.629,646.019 864.5,648C 862.942,663.302 860.776,678.469 858,693.5C 854.023,706.705 850.856,720.039 848.5,733.5C 853.989,695.23 860.323,657.23 867.5,619.5C 868.6,617.723 869.434,615.723 870,613.5C 872.439,596.475 874.939,579.475 877.5,562.5C 882.881,528.096 888.714,493.763 895,459.5C 897.545,458.203 900.045,458.369 902.5,460C 907.037,464.369 911.37,468.869 915.5,473.5 Z"/></g>
<g><path style="opacity:0.933" fill="#b49654" d="M 846.5,645.5 C 840.942,681.181 835.275,716.848 829.5,752.5C 826.687,752.975 824.687,751.975 823.5,749.5C 825.117,750.038 826.784,750.371 828.5,750.5C 829.597,744.993 829.597,739.493 828.5,734C 829.993,727.602 830.826,721.102 831,714.5C 831.915,713.672 832.581,712.672 833,711.5C 833.594,707.289 834.428,703.122 835.5,699C 838.333,681.837 841.166,664.671 844,647.5C 844.417,646.244 845.25,645.577 846.5,645.5 Z"/></g>
<g><path style="opacity:0.482" fill="#aa9358" d="M 387.5,664.5 C 392.545,679.257 399.212,693.257 407.5,706.5C 407.167,707.5 406.5,708.167 405.5,708.5C 398.058,707.061 390.725,705.727 383.5,704.5C 390.528,705.232 397.528,705.232 404.5,704.5C 399.731,697.404 395.398,690.07 391.5,682.5C 390.758,681.713 389.925,681.047 389,680.5C 388.784,675.714 387.95,671.047 386.5,666.5C 386.543,665.584 386.876,664.917 387.5,664.5 Z"/></g>
<g><path style="opacity:0.78" fill="#b39754" d="M 383.5,704.5 C 352.762,702.874 322.429,705.541 292.5,712.5C 292.937,710.926 293.937,709.759 295.5,709C 300.017,708.737 304.351,707.737 308.5,706C 333.627,703.608 358.627,703.108 383.5,704.5 Z"/></g>
<g><path style="opacity:0.61" fill="#ad945b" d="M 659.5,705.5 C 643.778,706.811 628.278,709.478 613,713.5C 611.124,713.475 609.624,712.809 608.5,711.5C 611.85,711.665 615.183,711.498 618.5,711C 619.167,710.333 619.833,709.667 620.5,709C 623.5,708.667 626.5,708.333 629.5,708C 630.672,707.581 631.672,706.915 632.5,706C 639.394,705.67 646.227,704.836 653,703.5C 654.833,703.667 656.667,703.833 658.5,704C 659.056,704.383 659.389,704.883 659.5,705.5 Z"/></g>
<g><path style="opacity:0.9" fill="#a27a41" d="M 407.5,723.5 C 407.38,724.586 406.713,725.253 405.5,725.5C 396.365,725.027 387.365,724.194 378.5,723C 367.833,722.333 357.167,722.333 346.5,723C 333.487,724.252 320.487,725.585 307.5,727C 300.221,729.356 292.888,731.522 285.5,733.5C 281.971,735.469 278.638,737.802 275.5,740.5C 268.37,740.479 262.37,742.979 257.5,748C 255.167,748.333 252.833,748.667 250.5,749C 248.833,751.333 247.167,753.667 245.5,756C 241.507,756.322 238.174,757.988 235.5,761C 233.934,761.765 232.601,761.598 231.5,760.5C 270.002,732.738 313.168,719.071 361,719.5C 376.603,719.769 392.103,721.102 407.5,723.5 Z"/></g>
<g><path style="opacity:1" fill="#a37a3f" d="M 717.5,721.5 C 717.389,722.117 717.056,722.617 716.5,723C 714,723.167 711.5,723.333 709,723.5C 689.159,723.358 669.326,723.358 649.5,723.5C 646.151,723.892 642.817,724.392 639.5,725C 638.663,726.011 638.33,727.178 638.5,728.5C 634.13,727.387 633.797,725.887 637.5,724C 664.17,718.756 690.837,717.922 717.5,721.5 Z"/></g>
<g><path style="opacity:1" fill="#ad782d" d="M 915.5,473.5 C 916.167,473.5 916.5,473.833 916.5,474.5C 915.761,474.369 915.094,474.536 914.5,475C 917.766,477.536 919.1,480.869 918.5,485C 917,495.167 915.5,505.333 914,515.5C 912,523.5 910,531.5 908,539.5C 906.625,553.586 904.625,567.586 902,581.5C 896.889,599.59 893.556,617.923 892,636.5C 888.842,644.933 886.508,653.599 885,662.5C 884.535,663.931 883.701,665.097 882.5,666C 881.111,692.831 876.611,719.331 869,745.5C 869.033,754.744 867.7,763.744 865,772.5C 864.646,779.064 863.812,785.564 862.5,792C 862.514,793.385 862.848,794.551 863.5,795.5C 863.5,796.167 863.167,796.5 862.5,796.5C 861.71,795.391 861.21,794.058 861,792.5C 860.667,793.5 860.333,794.5 860,795.5C 859.81,804.332 858.643,812.998 856.5,821.5C 849.402,819.941 844.069,815.941 840.5,809.5C 837.162,808.389 834.495,806.389 832.5,803.5C 829.691,803.148 827.358,801.982 825.5,800C 823.866,799.506 822.199,799.34 820.5,799.5C 806.957,791.231 793.291,783.231 779.5,775.5C 777.157,773.132 774.491,770.965 771.5,769C 766.525,767.179 761.859,764.846 757.5,762C 754.833,761.667 752.167,761.333 749.5,761C 736.396,755.584 723.063,750.917 709.5,747C 695.408,743.743 681.074,741.743 666.5,741C 659.635,736.133 652.302,732.133 644.5,729C 642.527,728.505 640.527,728.338 638.5,728.5C 638.33,727.178 638.663,726.011 639.5,725C 642.817,724.392 646.151,723.892 649.5,723.5C 669.326,723.358 689.159,723.358 709,723.5C 711.5,723.333 714,723.167 716.5,723C 717.056,722.617 717.389,722.117 717.5,721.5C 718.167,721.5 718.5,721.833 718.5,722.5C 719.058,723.79 720.058,724.623 721.5,725C 732.849,727.671 744.183,730.338 755.5,733C 758.365,735.286 761.698,736.12 765.5,735.5C 782.388,741.606 797.722,750.272 811.5,761.5C 816.384,765.88 821.217,770.546 826,775.5C 826.273,777.101 826.773,778.601 827.5,780C 831.512,783.008 835.845,785.508 840.5,787.5C 842.167,787.167 843.167,786.167 843.5,784.5C 842.898,782.392 842.565,780.225 842.5,778C 842.969,771.351 844.136,764.851 846,758.5C 846.499,754.514 846.666,750.514 846.5,746.5C 846.438,741.924 847.105,737.591 848.5,733.5C 850.856,720.039 854.023,706.705 858,693.5C 860.776,678.469 862.942,663.302 864.5,648C 864.629,646.019 865.296,644.353 866.5,643C 865.941,642.275 865.608,641.442 865.5,640.5C 867.263,631.993 869.43,623.659 872,615.5C 875.455,589.31 879.455,563.31 884,537.5C 884.409,528.76 885.243,520.093 886.5,511.5C 887.5,511.5 888.5,511.5 889.5,511.5C 889.334,506.156 889.501,500.823 890,495.5C 892.554,489.45 894.221,483.117 895,476.5C 895.785,474.714 896.951,473.214 898.5,472C 898.745,468.666 898.078,465.333 896.5,462C 896.833,461.167 897.167,460.333 897.5,459.5C 902.333,462.693 906.333,466.693 909.5,471.5C 911.173,473.086 913.173,473.753 915.5,473.5 Z"/></g>
<g><path style="opacity:0.718" fill="#9c7847" d="M 718.5,722.5 C 734.831,724.83 750.497,729.163 765.5,735.5C 761.698,736.12 758.365,735.286 755.5,733C 744.183,730.338 732.849,727.671 721.5,725C 720.058,724.623 719.058,723.79 718.5,722.5 Z"/></g>
<g><path style="opacity:1" fill="#ad782d" d="M 149.5,470.5 C 149.5,470.833 149.5,471.167 149.5,471.5C 150.154,490.58 152.487,509.414 156.5,528C 155.692,528.308 155.025,528.808 154.5,529.5C 155.414,531.664 156.581,533.664 158,535.5C 158.363,540.953 159.363,546.286 161,551.5C 161.278,550.584 161.778,549.918 162.5,549.5C 164.58,556.914 165.913,564.581 166.5,572.5C 169.06,589.472 171.56,606.472 174,623.5C 174.538,628.147 175.705,632.48 177.5,636.5C 179.488,646.408 181.488,656.408 183.5,666.5C 182.844,667.622 182.511,668.955 182.5,670.5C 183.034,687.059 185.367,703.393 189.5,719.5C 191.426,731.464 193.093,743.464 194.5,755.5C 195.427,757.113 196.261,758.779 197,760.5C 197.365,768.994 198.199,777.327 199.5,785.5C 201.512,786.014 203.512,786.18 205.5,786C 211.621,780.045 217.621,773.878 223.5,767.5C 225.751,764.705 228.418,762.372 231.5,760.5C 232.601,761.598 233.934,761.765 235.5,761C 238.174,757.988 241.507,756.322 245.5,756C 247.167,753.667 248.833,751.333 250.5,749C 252.833,748.667 255.167,748.333 257.5,748C 262.37,742.979 268.37,740.479 275.5,740.5C 278.638,737.802 281.971,735.469 285.5,733.5C 292.888,731.522 300.221,729.356 307.5,727C 320.487,725.585 333.487,724.252 346.5,723C 357.167,722.333 367.833,722.333 378.5,723C 387.365,724.194 396.365,725.027 405.5,725.5C 406.713,725.253 407.38,724.586 407.5,723.5C 408.167,723.5 408.5,723.833 408.5,724.5C 413.715,727.298 419.381,729.464 425.5,731C 426.861,732.584 427.528,734.418 427.5,736.5C 429.973,736.088 431.306,737.088 431.5,739.5C 431.414,740.496 431.748,741.329 432.5,742C 408.167,741.097 383.833,741.43 359.5,743C 349.804,744.507 340.138,746.174 330.5,748C 328.574,748.422 327.574,749.589 327.5,751.5C 287.043,762.73 249.71,780.397 215.5,804.5C 213.063,804.886 211.063,806.053 209.5,808C 207.5,808.333 205.5,808.667 203.5,809C 199.181,812.83 195.181,816.996 191.5,821.5C 189.647,822.76 187.814,822.76 186,821.5C 183.158,805.59 180.824,789.59 179,773.5C 178.964,771.059 178.131,769.059 176.5,767.5C 174.587,756.067 172.92,744.567 171.5,733C 171.559,731.564 171.892,730.231 172.5,729C 171.551,728.383 170.718,728.549 170,729.5C 168.677,723.893 167.677,718.226 167,712.5C 165.272,707.736 163.439,703.07 161.5,698.5C 157.216,679.073 153.549,659.406 150.5,639.5C 150.354,631.126 149.688,622.793 148.5,614.5C 144.707,601.703 141.874,588.703 140,575.5C 139.31,574.262 138.81,574.262 138.5,575.5C 137.402,571.281 136.402,566.948 135.5,562.5C 136.163,560.359 136.497,558.025 136.5,555.5C 136.055,549.162 135.555,542.829 135,536.5C 134.581,535.328 133.915,534.328 133,533.5C 132.093,526.819 131.093,520.152 130,513.5C 128.714,511.817 127.547,510.151 126.5,508.5C 125.833,508.5 125.5,508.167 125.5,507.5C 126.161,505.866 126.494,504.033 126.5,502C 125.385,494.488 124.551,486.988 124,479.5C 129.564,472.406 135.731,465.906 142.5,460C 143.784,459.316 144.951,459.483 146,460.5C 146.988,463.424 147.654,466.424 148,469.5C 148.383,470.056 148.883,470.389 149.5,470.5 Z"/></g>
<g><path style="opacity:0.365" fill="#af985f" d="M 209.5,728.5 C 212.255,734.065 213.922,740.065 214.5,746.5C 215.748,747.04 216.915,747.707 218,748.5C 219.775,745.847 221.942,744.847 224.5,745.5C 221.445,748.718 217.945,751.384 214,753.5C 213.667,753.167 213.333,752.833 213,752.5C 211.292,744.584 210.125,736.584 209.5,728.5 Z"/></g>
<g><path style="opacity:0.275" fill="#a5835a" d="M 408.5,724.5 C 414.913,725.101 420.913,726.935 426.5,730C 429.883,733.928 433.383,737.761 437,741.5C 438.827,743.586 438.827,745.586 437,747.5C 423.349,744.759 409.515,743.425 395.5,743.5C 408.445,742.131 421.445,742.797 434.5,745.5C 434.913,742.68 433.913,740.68 431.5,739.5C 431.306,737.088 429.973,736.088 427.5,736.5C 427.528,734.418 426.861,732.584 425.5,731C 419.381,729.464 413.715,727.298 408.5,724.5 Z"/></g>
<g><path style="opacity:0.833" fill="#a3783f" d="M 431.5,739.5 C 433.913,740.68 434.913,742.68 434.5,745.5C 421.445,742.797 408.445,742.131 395.5,743.5C 372.537,743.704 349.87,746.37 327.5,751.5C 327.574,749.589 328.574,748.422 330.5,748C 340.138,746.174 349.804,744.507 359.5,743C 383.833,741.43 408.167,741.097 432.5,742C 431.748,741.329 431.414,740.496 431.5,739.5 Z"/></g>
<g><path style="opacity:0.982" fill="#a47d4a" d="M 916.5,474.5 C 920.955,480.524 921.788,487.191 919,494.5C 900.817,594.914 882.317,695.248 863.5,795.5C 862.848,794.551 862.514,793.385 862.5,792C 863.812,785.564 864.646,779.064 865,772.5C 867.7,763.744 869.033,754.744 869,745.5C 876.611,719.331 881.111,692.831 882.5,666C 883.701,665.097 884.535,663.931 885,662.5C 886.508,653.599 888.842,644.933 892,636.5C 893.556,617.923 896.889,599.59 902,581.5C 904.625,567.586 906.625,553.586 908,539.5C 910,531.5 912,523.5 914,515.5C 915.5,505.333 917,495.167 918.5,485C 919.1,480.869 917.766,477.536 914.5,475C 915.094,474.536 915.761,474.369 916.5,474.5 Z"/></g>
<g><path style="opacity:0.937" fill="#a0743e" d="M 638.5,728.5 C 640.527,728.338 642.527,728.505 644.5,729C 652.302,732.133 659.635,736.133 666.5,741C 681.074,741.743 695.408,743.743 709.5,747C 723.063,750.917 736.396,755.584 749.5,761C 752.167,761.333 754.833,761.667 757.5,762C 761.859,764.846 766.525,767.179 771.5,769C 774.491,770.965 777.157,773.132 779.5,775.5C 743.072,757.971 704.739,746.804 664.5,742C 657.833,739 651.167,736 644.5,733C 642.253,731.723 640.253,730.223 638.5,728.5 Z"/></g>
<g><path style="opacity:0.039" fill="#ccbab9" d="M 206.5,754.5 C 208.445,756.307 209.445,758.64 209.5,761.5C 208.246,764.675 208.246,767.841 209.5,771C 209.532,772.971 208.698,774.471 207,775.5C 205.947,770.196 205.114,764.863 204.5,759.5C 205.174,757.805 205.841,756.138 206.5,754.5 Z"/></g>
<g><path style="opacity:1" fill="#a47b48" d="M 161.5,698.5 C 163.439,703.07 165.272,707.736 167,712.5C 167.677,718.226 168.677,723.893 170,729.5C 170.718,728.549 171.551,728.383 172.5,729C 171.892,730.231 171.559,731.564 171.5,733C 172.92,744.567 174.587,756.067 176.5,767.5C 178.131,769.059 178.964,771.059 179,773.5C 180.824,789.59 183.158,805.59 186,821.5C 187.814,822.76 189.647,822.76 191.5,821.5C 195.181,816.996 199.181,812.83 203.5,809C 205.5,808.667 207.5,808.333 209.5,808C 211.063,806.053 213.063,804.886 215.5,804.5C 206.398,811.759 197.398,819.259 188.5,827C 187.216,827.684 186.049,827.517 185,826.5C 177.06,783.861 169.227,741.195 161.5,698.5 Z"/></g>
<g><path style="opacity:0.749" fill="#a57d4b" d="M 183.5,666.5 C 189.648,705.87 195.981,745.203 202.5,784.5C 203.552,784.649 204.552,784.483 205.5,784C 207.5,781.667 209.5,779.333 211.5,777C 215.394,773.596 219.394,770.429 223.5,767.5C 217.621,773.878 211.621,780.045 205.5,786C 203.512,786.18 201.512,786.014 199.5,785.5C 198.199,777.327 197.365,768.994 197,760.5C 196.261,758.779 195.427,757.113 194.5,755.5C 193.093,743.464 191.426,731.464 189.5,719.5C 185.367,703.393 183.034,687.059 182.5,670.5C 182.511,668.955 182.844,667.622 183.5,666.5 Z"/></g>
<g><path style="opacity:0.212" fill="#a37b4a" d="M 846.5,746.5 C 846.666,750.514 846.499,754.514 846,758.5C 844.136,764.851 842.969,771.351 842.5,778C 842.565,780.225 842.898,782.392 843.5,784.5C 843.167,786.167 842.167,787.167 840.5,787.5C 835.845,785.508 831.512,783.008 827.5,780C 826.773,778.601 826.273,777.101 826,775.5C 821.217,770.546 816.384,765.88 811.5,761.5C 813.95,762.777 816.283,764.277 818.5,766C 825.703,772.372 832.703,778.872 839.5,785.5C 841.569,772.319 843.902,759.319 846.5,746.5 Z"/></g>
<g><path style="opacity:1" fill="#a27841" d="M 862.5,796.5 C 861.421,806.554 859.921,816.554 858,826.5C 857.439,827.022 856.772,827.355 856,827.5C 843.991,818.317 832.158,808.983 820.5,799.5C 822.199,799.34 823.866,799.506 825.5,800C 827.358,801.982 829.691,803.148 832.5,803.5C 834.495,806.389 837.162,808.389 840.5,809.5C 844.069,815.941 849.402,819.941 856.5,821.5C 858.643,812.998 859.81,804.332 860,795.5C 860.333,794.5 860.667,793.5 861,792.5C 861.21,794.058 861.71,795.391 862.5,796.5 Z"/></g>
</svg>
