<?xml version="1.0" encoding="UTF-8" standalone="no"?>
<!-- Created with Inkscape (http://www.inkscape.org/) -->

<svg
   width="210mm"
   height="195mm"
   viewBox="0 0 210 195"
   version="1.1"
   id="svg1"
   xml:space="preserve"
   inkscape:version="1.3.2 (091e20e, 2023-11-25, custom)"
   sodipodi:docname="logo.svg"
   xmlns:inkscape="http://www.inkscape.org/namespaces/inkscape"
   xmlns:sodipodi="http://sodipodi.sourceforge.net/DTD/sodipodi-0.dtd"
   xmlns="http://www.w3.org/2000/svg"
   xmlns:svg="http://www.w3.org/2000/svg"><sodipodi:namedview
     id="namedview1"
     pagecolor="#6a6a6a"
     bordercolor="#000000"
     borderopacity="0"
     inkscape:showpageshadow="2"
     inkscape:pageopacity="0.0"
     inkscape:pagecheckerboard="0"
     inkscape:deskcolor="#d1d1d1"
     inkscape:document-units="mm"
     inkscape:zoom="0.35355339"
     inkscape:cx="-439.82042"
     inkscape:cy="1084.7018"
     inkscape:window-width="1920"
     inkscape:window-height="1017"
     inkscape:window-x="-8"
     inkscape:window-y="-8"
     inkscape:window-maximized="1"
     inkscape:current-layer="layer1" /><defs
     id="defs1" /><g
     inkscape:label="Layer 1"
     inkscape:groupmode="layer"
     id="layer1"
     style="opacity:1;mix-blend-mode:normal"><g
       style="clip-rule:evenodd;fill-rule:evenodd;image-rendering:optimizeQuality;shape-rendering:geometricPrecision;text-rendering:geometricPrecision"
       id="g50"
       transform="matrix(0.23530875,0,0,0.23513313,-17.772365,-0.68444358)"><g
         id="g1"><path
           style="opacity:1"
           fill="#182d45"
           d="m 591.5,41.5 c 15.11,8.7258 30.443,17.2258 46,25.5 9.264,4.7998 18.597,9.2998 28,13.5 99.602,52.136 199.269,104.302 299,156.5 1.894,1.079 2.227,2.413 1,4 -71.859,39.094 -143.526,78.427 -215,118 -6.885,3.86 -10.95987,5.91933 -18.40787,8.39233 -1.107,-0.085 -4.74234,-3.17937 -5.63534,-3.76037 C 730.97979,323.63096 735.523,287.499 741,247.5 c 0.824,-3.382 0.657,-6.716 -0.5,-10 -94.45,-36.848 -192.116,-49.348 -293,-37.5 -50.026,6.09 -98.359,18.59 -145,37.5 -0.915,0.828 -1.581,1.828 -2,3 4.133,27.599 7.8,55.266 11,83 -0.652,0.949 -0.986,2.115 -1,3.5 1.942,13.815 3.609,27.648 5,41.5 h -4 C 234.061,326.612 156.14283,284.31313 78.915834,241.86813 76.046211,238.63521 77.129853,236.92248 83.328869,232.68496 230.69087,154.11896 371.529,82.434 519.5,5 c 1.333,-0.66667 2.667,-0.66667 4,0 22.856,11.9262 45.523,24.0929 68,36.5 z"
           id="path1"
           sodipodi:nodetypes="cccccccccccccccccccccc" /></g><g
         id="g2"><path
           style="opacity:0.243"
           fill="#373f4e"
           d="m 591.5,41.5 c 25.171,12.2025 49.838,25.2025 74,39 -9.403,-4.2002 -18.736,-8.7002 -28,-13.5 -15.557,-8.2742 -30.89,-16.7742 -46,-25.5 z"
           id="path2" /></g><g
         id="g3"><path
           style="opacity:1"
           fill="#182d45"
           d="m 705.5,373.5 c -1.906,6.772 -3.406,13.772 -4.5,21 -0.739,11.435 -2.239,22.769 -4.5,34 -0.318,1.147 -0.984,1.981 -2,2.5 0.956,3.394 1.289,6.894 1,10.5 h -3 c -97.986,-28.753 -196.986,-32.586 -297,-11.5 -16.393,4.182 -32.726,8.182 -49,12 -8.535,-63.115 -16.59659,-125.15675 -24.39459,-188.37475 0.0226,-2.79728 0.64959,-3.37704 2.74739,-4.11755 C 361.9828,235.0787 398.964,225.571 438.5,220 c 96.031,-13.811 189.531,-3.978 280.5,29.5 1.911,1.282 2.744,3.115 2.5,5.5 -5.621,39.47 -10.954,78.97 -16,118.5 z"
           id="path3"
           sodipodi:nodetypes="cccccccccccccc" /></g><g
         id="g4"><path
           style="opacity:0.431"
           fill="#424956"
           d="m 311.5,323.5 c 2.205,14.181 4.205,28.348 6,42.5 -0.837,1.011 -1.17,2.178 -1,3.5 -1.915,0.284 -3.581,-0.049 -5,-1 1.333,0 2.667,0 4,0 -1.391,-13.852 -3.058,-27.685 -5,-41.5 0.014,-1.385 0.348,-2.551 1,-3.5 z"
           id="path4" /></g><g
         id="g5"><path
           style="opacity:1"
           fill="#b8933e"
           d="m 281.5,371.5 c 0.304,0.65 0.637,1.317 1,2 8.346,3.136 15.679,7.636 22,13.5 5.242,2.444 10.576,4.611 16,6.5 1.30059,1.80923 1.31753,1.80706 2.70276,4.5648 -1.777,4.971 -1.97976,8.0732 0.79724,12.4352 1.527,18.097 3.694,36.097 6.5,54 7.238,0.482 14.238,-0.518 21,-3 v -3 c 13.279,-4.738 26.945,-8.405 41,-11 14.601,-1.704 29.268,-3.704 44,-6 1.493,-0.641 2.493,-1.641 3,-3 0,-0.667 0.333,-1 1,-1 7.498,0.586 15.165,0.753 23,0.5 1.679,3.297 4.346,4.297 8,3 -1.559,-0.98 -3.226,-1.813 -5,-2.5 0.525,-0.692 1.192,-1.192 2,-1.5 12.657,-0.103 25.323,-0.436 38,-1 1.27,0.9 2.27,2.066 3,3.5 2.057,5.123 3.224,10.456 3.5,16 0.383,0.556 0.883,0.889 1.5,1 -2.381,12.588 -8.714,22.755 -19,30.5 -13.383,9.353 -27.05,18.186 -41,26.5 -2.246,0.955 -4.579,1.622 -7,2 v 3 c -3.882,0.046 -6.548,1.879 -8,5.5 -3.521,3.33 -7.521,6.164 -12,8.5 -4.31,6.091 -9.86212,11.18779 -15.88512,15.76379 -0.585,1.498 -0.085,2.498 1.5,3 -0.37269,0.51781 -0.85477,-0.0692 -1,1 -2.128,1.457 -4.462,2.457 -7,3 -1.521,3.25 -2.80288,6.81921 -4.61488,10.23621 -1.414,1.124 -2.914,2.124 -4.5,3 -2.573,5.075 -4.406,10.408 -5.5,16 -1.128,0.762 -2.295,1.429 -3.5,2 -2.076,8.882 -3.576,17.882 -4.5,27 -2.065,17.412 -0.398,34.412 5,51 -0.624,0.417 -0.957,1.084 -1,2 1.45,4.547 2.284,9.214 2.5,14 0.925,0.547 1.758,1.213 2.5,2 3.898,7.57 8.231,14.904 13,22 -6.972,0.732 -13.972,0.732 -21,0 -24.873,-1.392 -49.873,-0.892 -75,1.5 -4.149,1.737 -8.483,2.737 -13,3 -1.563,0.759 -2.563,1.926 -3,3.5 -24.348,7.559 -47.015,18.559 -68,33 -2.558,-0.653 -4.725,0.347 -6.5,3 -1.085,-0.793 -2.252,-1.46 -3.5,-2 -0.578,-6.435 -2.245,-12.435 -5,-18 -3.734,-18.071 -6.734,-36.405 -9,-55 -1.047,-15.974 -3.047,-31.807 -6,-47.5 0.445,-1.447 1.112,-2.78 2,-4 -1.149,-1.73 -1.149,-3.396 0,-5 -1.217,-1.648 -2.05,-3.481 -2.5,-5.5 -0.333,1 -0.667,2 -1,3 -0.333,-4.333 -0.667,-8.667 -1,-13 -1.846,-2.704 -3.013,-5.704 -3.5,-9 -0.457,-0.798 -1.124,-1.131 -2,-1 v -1 c -1.659,-15.781 -3.826,-31.447 -6.5,-47 -0.499,-5.657 -0.666,-11.324 -0.5,-17 h 3 c 0.087,-5.037 -0.246,-10.037 -1,-15 h -5 c 0.162,-2.027 -0.005,-4.027 -0.5,-6 -4.036,-8.143 -6.202,-16.809 -6.5,-26 h 3 c 0.069,-5.354 0.402,-10.687 1,-16 -3.266,-0.067 -4.766,1.599 -4.5,5 l -1,-1 c -0.333,-4 -0.667,-8 -1,-12 -1.307,-1.692 -2.807,-3.025 -4.5,-4 -2.295,-9.768 -3.961,-19.768 -5,-30 -0.835,-7.002 -1.335,-14.002 -1.5,-21 1.996,-2.327 4.496,-3.827 7.5,-4.5 2.129,-2.439 4.129,-4.939 6,-7.5 24.568,-16.756 51.568,-28.089 81,-34 10.84,4.916 21.173,10.583 31,17 z"
           id="path5"
           sodipodi:nodetypes="cccccccccccccccccccccccccccccccccccccccccccccccccccccccccccccccccccccccccccccc" /></g><g
         id="g6"><path
           style="opacity:1"
           fill="#b8923e"
           d="m 869.5,385.5 c 0.039,1.083 0.373,2.083 1,3 5.849,2.679 11.016,6.345 15.5,11 0.057,7.324 -0.109,14.657 -0.5,22 0.178,3.622 -0.489,6.956 -2,10 -0.617,0.111 -1.117,0.444 -1.5,1 -4.149,20.831 -7.315,41.831 -9.5,63 -1,0 -2,0 -3,0 -0.837,17.525 -3.17,34.859 -7,52 0.011,1.545 0.344,2.878 1,4 -0.333,0.667 -0.667,1.333 -1,2 -0.617,0.111 -1.117,0.444 -1.5,1 -2.918,10.491 -4.585,21.157 -5,32 -1.19,8.428 -2.857,16.761 -5,25 -0.81,3.858 -0.643,7.524 0.5,11 -1.57,7.78 -3.237,15.447 -5,23 -1.25,0.077 -2.083,0.744 -2.5,2 -2.834,17.171 -5.667,34.337 -8.5,51.5 -1.072,4.122 -1.906,8.289 -2.5,12.5 -0.419,1.172 -1.085,2.172 -2,3 -0.174,6.602 -1.007,13.102 -2.5,19.5 1.097,5.493 1.097,10.993 0,16.5 -1.716,-0.129 -3.383,-0.462 -5,-1 -48.96,-35.243 -103.627,-49.91 -164,-44 -0.111,-0.617 -0.444,-1.117 -1,-1.5 -1.833,-0.167 -3.667,-0.333 -5.5,-0.5 -6.773,1.336 -13.606,2.17 -20.5,2.5 -0.828,0.915 -1.828,1.581 -3,2 -3,0.333 -6,0.667 -9,1 -0.667,0.667 -1.333,1.333 -2,2 -3.317,0.498 -6.65,0.665 -10,0.5 -25.731,-14.876 -48.398,-33.543 -68,-56 -2.799,-4.24 -5.632,-8.573 -8.5,-13 -0.696,-2.978 -1.196,-5.978 -1.5,-9 -1.859,0.039 -3.192,-0.794 -4,-2.5 0.799,-2.481 0.966,-5.314 0.5,-8.5 -0.333,0.333 -0.667,0.667 -1,1 -0.251,-1.933 -0.751,-3.766 -1.5,-5.5 0.333,-0.333 0.667,-0.667 1,-1 -3.418,-2.99 -4.751,-6.824 -4,-11.5 0.317,-5.35 0.817,-10.684 1.5,-16 2.451,-5.75 3.951,-11.75 4.5,-18 2.411,0.363 3.911,-0.637 4.5,-3 1.531,-5.707 3.031,-11.373 4.5,-17 3.308,-6.61 7.142,-12.944 11.5,-19 11.871,-13.732 21.204,-29.066 28,-46 4.292,-16.544 2.792,-32.544 -4.5,-48 0.108,-0.942 0.441,-1.775 1,-2.5 21.923,0.322 43.589,2.988 65,8 24.277,5.569 48.277,12.069 72,19.5 1.98,-1.348 3.147,-3.348 3.5,-6 2.309,-19.992 4.475,-39.992 6.5,-60 0.683,-3.52 2.683,-6.02 6,-7.5 18.989,-9.826 37.655,-20.159 56,-31 3.552,-1.795 7.218,-3.295 11,-4.5 27.624,5.651 53.291,15.985 77,31 z"
           id="path6" /></g><g
         id="g7"><path
           style="opacity:0.882"
           fill="#b1935c"
           d="m 281.5,371.5 c 10.527,4.682 20.861,9.849 31,15.5 2.855,2.031 5.522,4.197 8,6.5 -5.424,-1.889 -10.758,-4.056 -16,-6.5 -6.321,-5.864 -13.654,-10.364 -22,-13.5 -0.363,-0.683 -0.696,-1.35 -1,-2 z"
           id="path7" /></g><g
         id="g8"><path
           style="opacity:0.161"
           fill="#444d5d"
           d="m 705.5,373.5 c -2.918,23.014 -6.58562,44.36129 -9.66762,67.34729 -1.599,0.268 -2.26438,1.58671 -3.33238,0.65271 h 3 c 0.289,-3.606 -0.044,-7.106 -1,-10.5 1.016,-0.519 1.682,-1.353 2,-2.5 2.261,-11.231 3.761,-22.565 4.5,-34 1.094,-7.228 2.594,-14.228 4.5,-21 z"
           id="path8"
           sodipodi:nodetypes="cccccccc" /></g><g
         id="g9"><path
           style="opacity:0.298"
           fill="#b09464"
           d="m 869.5,385.5 c 6.765,3.807 12.931,8.474 18.5,14 0.777,7.636 -0.057,14.97 -2.5,22 0.391,-7.343 0.557,-14.676 0.5,-22 -4.484,-4.655 -9.651,-8.321 -15.5,-11 -0.627,-0.917 -0.961,-1.917 -1,-3 z"
           id="path9" /></g><g
         id="g10"><path
           style="opacity:0.098"
           fill="#b59661"
           d="m 169.5,388.5 c -1.871,2.561 -3.871,5.061 -6,7.5 -3.004,0.673 -5.504,2.173 -7.5,4.5 0.165,6.998 0.665,13.998 1.5,21 -2.449,-6.695 -3.616,-13.695 -3.5,-21 4.336,-5.083 9.503,-9.083 15.5,-12 z"
           id="path10" /></g><g
         id="g11"><path
           style="opacity:0.00799997"
           fill="#a8a8a8"
           d="m 415.5,434.5 c 1.837,0.139 2.17,0.806 1,2 -0.798,-0.457 -1.131,-1.124 -1,-2 z"
           id="path11" /></g><g
         id="g12"><path
           style="opacity:1"
           fill="#af924d"
           d="m 514.5,456.5 c -0.617,-0.111 -1.117,-0.444 -1.5,-1 -0.276,-5.544 -1.443,-10.877 -3.5,-16 -0.73,-1.434 -1.73,-2.6 -3,-3.5 -12.677,0.564 -25.343,0.897 -38,1 -0.808,0.308 -1.475,0.808 -2,1.5 1.774,0.687 3.441,1.52 5,2.5 -3.654,1.297 -6.321,0.297 -8,-3 -7.835,0.253 -15.502,0.086 -23,-0.5 22.243,-2.977 44.577,-4.477 67,-4.5 2.938,2.025 4.772,4.858 5.5,8.5 1.25,4.92 1.75,9.92 1.5,15 z"
           id="path12" /></g><g
         id="g13"><path
           style="opacity:0.431"
           fill="#b29759"
           d="m 719.5,397.5 c -2.025,20.008 -4.191,40.008 -6.5,60 -0.353,2.652 -1.52,4.652 -3.5,6 2.771,-16.901 4.938,-33.901 6.5,-51 0.614,-5.258 1.781,-10.258 3.5,-15 z"
           id="path13" /></g><g
         id="g14"><path
           style="opacity:0.818"
           fill="#ae8d4c"
           d="m 439.5,438.5 c -0.507,1.359 -1.507,2.359 -3,3 -14.732,2.296 -29.399,4.296 -44,6 24.76153,2.19651 33.31666,-6.17769 47,-9 z"
           id="path14"
           sodipodi:nodetypes="cccc" /></g><g
         id="g15"><path
           style="opacity:0.843"
           fill="#b19351"
           d="m 322.5,396.5 c 1.845,3.667 3.012,7.667 3.5,12 1.107,13.864 -0.30385,27.43054 2.92215,40.90054 -0.333,0.667 2.91085,1.43246 2.57785,2.09946 0.762,3.611 1.262,7.278 1.5,11 0.414,0.457 0.914,0.791 1.5,1 5.599,-1.97 11.265,-3.637 17,-5 v 3 c -6.762,2.482 -13.762,3.482 -21,3 -2.806,-17.903 -4.973,-35.903 -6.5,-54 -2.777,-4.362 -3.277,-9.029 -1.5,-14 z"
           id="path15"
           sodipodi:nodetypes="ccccccccccc" /></g><g
         id="g16"><path
           style="opacity:0.467"
           fill="#b99f6b"
           d="m 883.5,431.5 c -2.822,21.604 -6.489,42.937 -11,64 2.185,-21.169 5.351,-42.169 9.5,-63 0.383,-0.556 0.883,-0.889 1.5,-1 z"
           id="path16" /></g><g
         id="g17"><path
           style="opacity:0.773"
           fill="#a28254"
           d="m 149.5,470.5 c -0.617,-0.111 -1.117,-0.444 -1.5,-1 -0.346,-3.076 -1.012,-6.076 -2,-9 -1.049,-1.017 -2.216,-1.184 -3.5,-0.5 -6.769,5.906 -12.936,12.406 -18.5,19.5 0.551,7.488 1.385,14.988 2.5,22.5 -0.006,2.033 -0.339,3.866 -1,5.5 -0.398,-5.722 -1.231,-11.389 -2.5,-17 -0.667,-4 -0.667,-8 0,-12 6.012,-8.679 13.346,-16.012 22,-22 1.653,0.32 2.653,1.32 3,3 0.719,3.645 1.219,7.312 1.5,11 z"
           id="path17" /></g><g
         id="g18"><path
           style="opacity:0.839"
           fill="#a47c41"
           d="m 149.5,471.5 c 5.062,25.747 9.396,51.747 13,78 -0.722,0.418 -1.222,1.084 -1.5,2 -1.637,-5.214 -2.637,-10.547 -3,-16 -1.419,-1.836 -2.586,-3.836 -3.5,-6 0.525,-0.692 1.192,-1.192 2,-1.5 -4.013,-18.586 -6.346,-37.42 -7,-56.5 z"
           id="path18" /></g><g
         id="g19"><path
           style="opacity:0.999"
           fill="#b7944c"
           d="m 162.5,451.5 c 1.693,0.975 3.193,2.308 4.5,4 0.333,4 0.667,8 1,12 0.333,0.333 0.667,0.667 1,1 -0.266,-3.401 1.234,-5.067 4.5,-5 -0.598,5.313 -0.931,10.646 -1,16 -1,0 -2,0 -3,0 0.298,9.191 2.464,17.857 6.5,26 0.495,1.973 0.662,3.973 0.5,6 1.667,0 3.333,0 5,0 0.754,4.963 1.087,9.963 1,15 -1,0 -2,0 -3,0 -0.166,5.676 0.001,11.343 0.5,17 2.674,15.553 4.841,31.219 6.5,47 -8.543,-46.11 -16.543,-92.443 -24,-139 z"
           id="path19" /></g><g
         id="g20"><path
           style="opacity:0.278"
           fill="#b39b65"
           d="m 454.5,513.5 c -14.974,11.309 -28.64,23.976 -41,38 -1.585,-0.502 -2.085,-1.502 -1.5,-3 6.023,-4.576 11.19,-9.909 15.5,-16 4.479,-2.336 8.479,-5.17 12,-8.5 1.452,-3.621 4.118,-5.454 8,-5.5 0,-1 0,-2 0,-3 2.421,-0.378 4.754,-1.045 7,-2 z"
           id="path20" /></g><g
         id="g21"><path
           style="opacity:0.118"
           fill="#b79e64"
           d="m 872.5,495.5 c -2.815,18.703 -5.815,37.37 -9,56 -0.656,-1.122 -0.989,-2.455 -1,-4 3.83,-17.141 6.163,-34.475 7,-52 1,0 2,0 3,0 z"
           id="path21" /></g><g
         id="g22"><path
           style="opacity:1"
           fill="#a67e49"
           d="m 126.5,508.5 c 1.047,1.651 2.214,3.317 3.5,5 1.093,6.652 2.093,13.319 3,20 0.915,0.828 1.581,1.828 2,3 0.555,6.329 1.055,12.662 1.5,19 -0.003,2.525 -0.337,4.859 -1,7 -3.216,-17.964 -6.216,-35.964 -9,-54 z"
           id="path22" /></g><g
         id="g23"><path
           style="opacity:0.957"
           fill="#b09758"
           d="m 412.5,552.5 c -15.616,17.565 -25.616,37.899 -30,61 0.924,-9.118 2.424,-18.118 4.5,-27 1.205,-0.571 2.372,-1.238 3.5,-2 1.094,-5.592 2.927,-10.925 5.5,-16 1.586,-0.876 3.086,-1.876 4.5,-3 1.812,-3.417 3.479,-6.75 5,-10 2.538,-0.543 4.872,-1.543 7,-3 z"
           id="path23" /></g><g
         id="g24"><path
           style="opacity:0.431"
           fill="#b89d61"
           d="m 862.5,553.5 c -3.343,23.056 -7.009,46.056 -11,69 -1.143,-3.476 -1.31,-7.142 -0.5,-11 2.143,-8.239 3.81,-16.572 5,-25 0.415,-10.843 2.082,-21.509 5,-32 0.383,-0.556 0.883,-0.889 1.5,-1 z"
           id="path24" /></g><g
         id="g25"><path
           style="opacity:0.176"
           fill="#ab895c"
           d="m 166.5,572.5 c 4.768,21.015 8.434,42.348 11,64 -1.795,-4.02 -2.962,-8.353 -3.5,-13 -2.44,-17.028 -4.94,-34.028 -7.5,-51 z"
           id="path25" /></g><g
         id="g26"><path
           style="opacity:0.512"
           fill="#aa8559"
           d="m 150.5,639.5 c -4.874,-21.046 -8.874,-42.379 -12,-64 0.31,-1.238 0.81,-1.238 1.5,0 1.874,13.203 4.707,26.203 8.5,39 1.188,8.293 1.854,16.626 2,25 z"
           id="path26" /></g><g
         id="g27"><path
           style="opacity:0.999"
           fill="#b49450"
           d="m 186.5,591.5 c 0.876,-0.131 1.543,0.202 2,1 0.487,3.296 1.654,6.296 3.5,9 0.333,4.333 0.667,8.667 1,13 0.333,-1 0.667,-2 1,-3 0.45,2.019 1.283,3.852 2.5,5.5 -1.149,1.604 -1.149,3.27 0,5 -0.888,1.22 -1.555,2.553 -2,4 2.953,15.693 4.953,31.526 6,47.5 -5.08,-27.142 -9.746,-54.476 -14,-82 z"
           id="path27" /></g><g
         id="g28"><path
           style="opacity:0.22"
           fill="#aa885e"
           d="m 877.5,562.5 c -2.561,16.975 -5.061,33.975 -7.5,51 -0.566,2.223 -1.4,4.223 -2.5,6 2.587,-19.255 5.921,-38.255 10,-57 z"
           id="path28" /></g><g
         id="g29"><path
           style="opacity:1"
           fill="#b1904a"
           d="m 536.5,551.5 c -1.469,5.627 -2.969,11.293 -4.5,17 -0.589,2.363 -2.089,3.363 -4.5,3 -0.549,6.25 -2.049,12.25 -4.5,18 -0.683,5.316 -1.183,10.65 -1.5,16 -0.751,4.676 0.582,8.51 4,11.5 -0.333,0.333 -0.667,0.667 -1,1 0.749,1.734 1.249,3.567 1.5,5.5 0.333,-0.333 0.667,-0.667 1,-1 0.466,3.186 0.299,6.019 -0.5,8.5 0.808,1.706 2.141,2.539 4,2.5 0.304,3.022 0.804,6.022 1.5,9 2.868,4.427 5.701,8.76 8.5,13 -19.721,-20.016 -25.887,-43.683 -18.5,-71 3.252,-11.825 8.085,-22.825 14.5,-33 z"
           id="path29" /></g><g
         id="g30"><path
           style="opacity:1"
           fill="#a67c42"
           d="m 915.5,473.5 c -2.327,0.253 -4.327,-0.414 -6,-2 -3.167,-4.807 -7.167,-8.807 -12,-12 -0.333,0.833 -0.667,1.667 -1,2.5 1.578,3.333 2.245,6.666 2,10 -1.549,1.214 -2.715,2.714 -3.5,4.5 -0.779,6.617 -2.446,12.95 -5,19 -0.499,5.323 -0.666,10.656 -0.5,16 h -3 c -1.257,8.593 -2.091,17.26 -2.5,26 -4.545,25.81 -8.545,51.81 -12,78 -2.57,8.159 -4.737,16.493 -6.5,25 0.108,0.942 0.441,1.775 1,2.5 -1.204,1.353 -1.871,3.019 -2,5 -1.558,15.302 -3.724,30.469 -6.5,45.5 -3.977,13.205 -7.144,26.539 -9.5,40 5.489,-38.27 11.823,-76.27 19,-114 1.1,-1.777 1.934,-3.777 2.5,-6 2.439,-17.025 4.939,-34.025 7.5,-51 5.381,-34.404 11.214,-68.78673 17.5,-103.04973 1.40208,-3.43537 5.045,-1.08127 7.5,0.54973 4.537,4.369 8.87,8.869 13,13.5 z"
           id="path30"
           sodipodi:nodetypes="cccccccccccccccccccccc" /></g><g
         id="g31"><path
           style="opacity:0.933"
           fill="#b49654"
           d="m 846.5,645.5 c -5.558,35.681 -10.902,68.56315 -16.677,104.21515 -2.813,0.475 -3.44646,1.21553 -6.323,-0.21515 1.617,0.538 3.284,0.871 5,1 1.097,-5.507 1.097,-11.007 0,-16.5 1.493,-6.398 2.326,-12.898 2.5,-19.5 0.915,-0.828 1.581,-1.828 2,-3 0.594,-4.211 1.428,-8.378 2.5,-12.5 2.833,-17.163 5.666,-34.329 8.5,-51.5 0.417,-1.256 1.25,-1.923 2.5,-2 z"
           id="path31"
           sodipodi:nodetypes="cccccccccc" /></g><g
         id="g32"><path
           style="opacity:0.482"
           fill="#aa9358"
           d="m 387.5,664.5 c 5.045,14.757 11.712,28.757 20,42 -0.333,1 -1,1.667 -2,2 -7.442,-1.439 -14.775,-2.773 -22,-4 7.028,0.732 14.028,0.732 21,0 -4.769,-7.096 -9.102,-14.43 -13,-22 -0.742,-0.787 -1.575,-1.453 -2.5,-2 -0.216,-4.786 -1.05,-9.453 -2.5,-14 0.043,-0.916 0.376,-1.583 1,-2 z"
           id="path32" /></g><g
         id="g33"><path
           style="opacity:0.78"
           fill="#b39754"
           d="m 383.5,704.5 c -30.738,-1.626 -61.071,1.041 -91,8 0.437,-1.574 1.437,-2.741 3,-3.5 4.517,-0.263 8.851,-1.263 13,-3 25.127,-2.392 50.127,-2.892 75,-1.5 z"
           id="path33" /></g><g
         id="g34"><path
           style="opacity:0.61"
           fill="#ad945b"
           d="m 659.5,705.5 -51,6 c 3.35,0.165 6.683,-0.002 10,-0.5 l 2,-2 c 3,-0.333 6,-0.667 9,-1 1.172,-0.419 2.172,-1.085 3,-2 6.894,-0.33 13.727,-1.164 20.5,-2.5 1.833,0.167 3.667,0.333 5.5,0.5 0.556,0.383 0.889,0.883 1,1.5 z"
           id="path34"
           sodipodi:nodetypes="ccccccccc" /></g><g
         id="g35"><path
           style="opacity:0.9"
           fill="#a27a41"
           d="m 407.5,723.5 c -0.12,1.086 -0.787,1.753 -2,2 -9.135,-0.473 -18.135,-1.306 -27,-2.5 -10.667,-0.667 -21.333,-0.667 -32,0 -13.013,1.252 -26.013,2.585 -39,4 -7.279,2.356 -14.612,4.522 -22,6.5 -3.529,1.969 -6.862,4.302 -10,7 -7.13,-0.021 -13.13,2.479 -18,7.5 -2.333,0.333 -4.667,0.667 -7,1 -1.667,2.333 -3.333,4.667 -5,7 -3.993,0.322 -7.326,1.988 -10,5 -1.566,0.765 -2.899,0.598 -4,-0.5 38.502,-27.762 81.668,-41.429 129.5,-41 15.603,0.269 31.103,1.602 46.5,4 z"
           id="path35" /></g><g
         id="g36"><path
           style="opacity:1"
           fill="#a37a3f"
           d="m 720.24075,722.73074 c -0.111,0.617 -3.18475,-0.11374 -3.74075,0.26926 -2.5,0.167 -5,0.333 -7.5,0.5 -19.841,-0.142 -39.674,-0.142 -59.5,0 -3.349,0.392 -6.683,0.892 -10,1.5 -0.837,1.011 -1.17,2.178 -1,3.5 -4.37,-1.113 -4.703,-2.613 -1,-4.5 26.67,-5.244 56.07775,-4.84726 82.74075,-1.26926 z"
           id="path36"
           sodipodi:nodetypes="cccccccc" /></g><g
         id="g37"><path
           style="opacity:1"
           fill="#ad782d"
           d="m 915.5,473.5 c 0.667,0 1,0.333 1,1 -0.739,-0.131 -1.406,0.036 -2,0.5 3.266,2.536 4.6,5.869 4,10 -1.5,10.167 -3,20.333 -4.5,30.5 l -6,24 c -1.375,14.086 -3.375,28.086 -6,42 -5.111,18.09 -8.444,36.423 -10,55 -3.158,8.433 -5.492,17.099 -7,26 -0.465,1.431 -1.299,2.597 -2.5,3.5 -1.389,26.831 -5.889,53.331 -13.5,79.5 0.033,9.244 -1.3,18.244 -4,27 -0.354,6.564 -1.188,13.064 -2.5,19.5 0.014,1.385 0.348,2.551 1,3.5 0,0.667 -0.333,1 -1,1 -0.79,-1.109 -1.29,-2.442 -1.5,-4 -0.333,1 -0.667,2 -1,3 -0.19,8.832 -1.357,17.498 -3.5,26 -7.098,-1.559 -12.431,-5.559 -16,-12 -3.338,-1.111 -6.005,-3.111 -8,-6 -2.809,-0.352 -5.142,-1.518 -7,-3.5 -1.634,-0.494 -3.301,-0.66 -5,-0.5 -13.543,-8.269 -27.209,-16.269 -41,-24 -2.343,-2.368 -5.009,-4.535 -8,-6.5 -4.975,-1.821 -9.641,-4.154 -14,-7 -2.667,-0.333 -5.333,-0.667 -8,-1 -13.104,-5.416 -26.437,-10.083 -40,-14 -14.092,-3.257 -28.426,-5.257 -43,-6 -6.865,-4.867 -14.198,-8.867 -22,-12 -1.973,-0.495 -3.973,-0.662 -6,-0.5 -0.17,-1.322 0.163,-2.489 1,-3.5 3.317,-0.608 6.651,-1.108 10,-1.5 19.826,-0.142 39.659,-0.142 59.5,0 2.5,-0.167 5,-0.333 7.5,-0.5 0.556,-0.383 0.889,0.0664 1,-0.55057 0.667,0 1.14055,0.0517 1.14055,0.71872 0.558,1.29 1.41745,1.45488 2.85945,1.83188 11.349,2.671 22.683,5.338 34,8 2.865,2.286 6.198,3.12 10,2.5 16.888,6.106 32.222,14.772 46,26 4.884,4.38 9.717,9.046 14.5,14 0.273,1.601 0.773,3.101 1.5,4.5 4.012,3.008 8.345,5.508 13,7.5 1.667,-0.333 2.667,-1.333 3,-3 -0.602,-2.108 -0.935,-4.275 -1,-6.5 0.469,-6.649 1.636,-13.149 3.5,-19.5 0.499,-3.986 0.666,-7.986 0.5,-12 -0.062,-4.576 0.605,-8.909 2,-13 2.356,-13.461 5.523,-26.795 9.5,-40 2.776,-15.031 4.942,-30.198 6.5,-45.5 0.129,-1.981 0.796,-3.647 2,-5 -0.559,-0.725 -0.892,-1.558 -1,-2.5 1.763,-8.507 3.93,-16.841 6.5,-25 3.455,-26.19 7.455,-52.19 12,-78 0.409,-8.74 1.243,-17.407 2.5,-26 h 3 c -0.166,-5.344 10e-4,-10.677 0.5,-16 2.554,-6.05 4.221,-12.383 5,-19 0.785,-1.786 1.951,-3.286 3.5,-4.5 0.245,-3.334 -0.422,-6.667 -2,-10 0.333,-0.833 0.667,-1.667 1,-2.5 4.833,3.193 8.833,7.193 12,12 1.673,1.586 3.673,2.253 6,2 z"
           id="path37"
           sodipodi:nodetypes="cccccccccccccccccccccccccccccccccccccccccccccccccccccccccccccccc" /></g><g
         id="g38"><path
           style="opacity:0.718"
           fill="#9c7847"
           d="m 718.5,722.5 c 16.331,2.33 31.997,6.663 47,13 -3.802,0.62 -7.135,-0.214 -10,-2.5 -11.317,-2.662 -22.651,-5.329 -34,-8 -1.442,-0.377 -2.442,-1.21 -3,-2.5 z"
           id="path38" /></g><g
         id="g39"><path
           style="opacity:1"
           fill="#ad782d"
           d="m 149.5,470.5 c 0,0.333 0,0.667 0,1 0.654,19.08 2.987,37.914 7,56.5 -0.808,0.308 -1.475,0.808 -2,1.5 0.914,2.164 2.081,4.164 3.5,6 0.363,5.453 1.363,10.786 3,16 0.278,-0.916 0.778,-1.582 1.5,-2 2.08,7.414 3.413,15.081 4,23 2.56,16.972 5.06,33.972 7.5,51 0.538,4.647 1.705,8.98 3.5,13 1.988,9.908 3.988,19.908 6,30 -0.656,1.122 -0.989,2.455 -1,4 0.534,16.559 2.867,32.893 7,49 1.926,11.964 3.593,23.964 5,36 0.927,1.613 1.761,3.279 2.5,5 0.365,8.494 1.199,16.827 2.5,25 2.012,0.514 4.012,0.68 6,0.5 6.121,-5.955 12.121,-12.122 18,-18.5 2.251,-2.795 4.918,-5.128 8,-7 1.101,1.098 2.434,1.265 4,0.5 2.674,-3.012 6.007,-4.678 10,-5 1.667,-2.333 3.333,-4.667 5,-7 2.333,-0.333 4.667,-0.667 7,-1 4.87,-5.021 10.87,-7.521 18,-7.5 3.138,-2.698 6.471,-5.031 10,-7 7.388,-1.978 14.721,-4.144 22,-6.5 12.987,-1.415 25.987,-2.748 39,-4 10.667,-0.667 21.333,-0.667 32,0 8.865,1.194 17.865,2.027 27,2.5 1.213,-0.247 1.88,-0.914 2,-2 0.667,0 1,0.333 1,1 5.215,2.798 10.881,4.964 17,6.5 1.361,1.584 2.028,3.418 2,5.5 2.473,-0.412 3.806,0.588 4,3 -0.086,0.996 0.248,1.829 1,2.5 -24.333,-0.903 -48.667,-0.57 -73,1 -9.696,1.507 -19.362,3.174 -29,5 -1.926,0.422 -2.926,1.589 -3,3.5 -40.457,11.23 -77.79,28.897 -112,53 -2.437,0.386 -4.437,1.553 -6,3.5 -2,0.333 -4,0.667 -6,1 -4.319,3.83 -8.319,7.996 -12,12.5 -1.853,1.26 -3.686,1.26 -5.5,0 -2.842,-15.91 -5.176,-31.91 -7,-48 -0.036,-2.441 -0.869,-4.441 -2.5,-6 -1.913,-11.433 -3.58,-22.933 -5,-34.5 0.059,-1.436 0.392,-2.769 1,-4 -0.949,-0.617 -1.782,-0.451 -2.5,0.5 -1.323,-5.607 -2.323,-11.274 -3,-17 -1.728,-4.764 -3.561,-9.43 -5.5,-14 -4.284,-19.427 -7.951,-39.094 -11,-59 -0.146,-8.374 -0.812,-16.707 -2,-25 -3.793,-12.797 -6.626,-25.797 -8.5,-39 -0.69,-1.238 -1.19,-1.238 -1.5,0 -1.098,-4.219 -2.098,-8.552 -3,-13 0.663,-2.141 0.997,-4.475 1,-7 -0.445,-6.338 -0.945,-12.671 -1.5,-19 -0.419,-1.172 -1.085,-2.172 -2,-3 -0.907,-6.681 -1.907,-13.348 -3,-20 -1.286,-1.683 -2.453,-3.349 -3.5,-5 -0.667,0 -1,-0.333 -1,-1 0.661,-1.634 0.994,-3.467 1,-5.5 -1.115,-7.512 -1.949,-15.012 -2.5,-22.5 5.564,-7.094 11.731,-13.594 18.5,-19.5 1.284,-0.684 2.451,-0.517 3.5,0.5 0.988,2.924 1.654,5.924 2,9 0.383,0.556 0.883,0.889 1.5,1 z"
           id="path39" /></g><g
         id="g40"><path
           style="opacity:0.365"
           fill="#af985f"
           d="m 209.5,728.5 c 2.755,5.565 4.422,11.565 5,18 1.248,0.54 2.415,1.207 3.5,2 1.775,-2.653 3.942,-3.653 6.5,-3 -3.055,3.218 -6.555,5.884 -10.5,8 -0.333,-0.333 -0.667,-0.667 -1,-1 -1.708,-7.916 -2.875,-15.916 -3.5,-24 z"
           id="path40" /></g><g
         id="g41"><path
           style="opacity:0.275"
           fill="#a5835a"
           d="m 408.5,724.5 c 6.413,0.601 12.413,2.435 18,5.5 3.383,3.928 6.883,7.761 10.5,11.5 1.827,2.086 1.827,4.086 0,6 -13.651,-2.741 -27.485,-4.075 -41.5,-4 12.945,-1.369 25.945,-0.703 39,2 0.413,-2.82 -0.587,-4.82 -3,-6 -0.194,-2.412 -1.527,-3.412 -4,-3 0.028,-2.082 -0.639,-3.916 -2,-5.5 -6.119,-1.536 -11.785,-3.702 -17,-6.5 z"
           id="path41" /></g><g
         id="g42"><path
           style="opacity:0.833"
           fill="#a3783f"
           d="m 431.5,739.5 c 2.413,1.18 3.413,3.18 3,6 -13.055,-2.703 -26.055,-3.369 -39,-2 -22.963,0.204 -45.63,2.87 -68,8 0.074,-1.911 1.074,-3.078 3,-3.5 9.638,-1.826 19.304,-3.493 29,-5 24.333,-1.57 48.667,-1.903 73,-1 -0.752,-0.671 -1.086,-1.504 -1,-2.5 z"
           id="path42" /></g><g
         id="g43"><path
           style="opacity:0.982"
           fill="#a47d4a"
           d="m 916.5,474.5 c 4.455,6.024 5.288,12.691 2.5,20 -18.183,100.414 -36.683,200.748 -55.5,301 -0.652,-0.949 -0.986,-2.115 -1,-3.5 1.312,-6.436 2.146,-12.936 2.5,-19.5 2.7,-8.756 4.033,-17.756 4,-27 7.611,-26.169 12.111,-52.669 13.5,-79.5 1.201,-0.903 2.035,-2.069 2.5,-3.5 1.508,-8.901 3.842,-17.567 7,-26 1.556,-18.577 4.889,-36.91 10,-55 2.625,-13.914 4.625,-27.914 6,-42 2,-8 4,-16 6,-24 1.5,-10.167 3,-20.333 4.5,-30.5 0.6,-4.131 -0.734,-7.464 -4,-10 0.594,-0.464 1.261,-0.631 2,-0.5 z"
           id="path43" /></g><g
         id="g44"><path
           style="opacity:0.937"
           fill="#a0743e"
           d="m 638.5,728.5 c 2.027,-0.162 4.027,0.005 6,0.5 7.802,3.133 15.135,7.133 22,12 14.574,0.743 28.908,2.743 43,6 13.563,3.917 26.896,8.584 40,14 2.667,0.333 5.333,0.667 8,1 4.359,2.846 9.025,5.179 14,7 2.991,1.965 5.657,4.132 8,6.5 -36.428,-17.529 -74.761,-28.696 -115,-33.5 -6.667,-3 -12.86304,-6.8791 -19.53004,-9.8791 C 661.59552,733.54199 640.253,730.223 638.5,728.5 Z"
           id="path44"
           sodipodi:nodetypes="ccccccccccc" /></g><g
         id="g45"><path
           style="opacity:0.039"
           fill="#ccbab9"
           d="m 206.5,754.5 c 1.945,1.807 2.945,4.14 3,7 -1.254,3.175 -1.254,6.341 0,9.5 0.032,1.971 -0.802,3.471 -2.5,4.5 -1.053,-5.304 -1.886,-10.637 -2.5,-16 0.674,-1.695 1.341,-3.362 2,-5 z"
           id="path45" /></g><g
         id="g46"><path
           style="opacity:1"
           fill="#a47b48"
           d="m 161.5,698.5 c 1.939,4.57 3.772,9.236 5.5,14 0.677,5.726 1.677,11.393 3,17 0.718,-0.951 1.551,-1.117 2.5,-0.5 -0.608,1.231 -0.941,2.564 -1,4 1.42,11.567 3.087,23.067 5,34.5 1.631,1.559 2.464,3.559 2.5,6 1.824,16.09 4.158,32.09 7,48 1.814,1.26 3.647,1.26 5.5,0 3.681,-4.504 7.681,-8.67 12,-12.5 2,-0.333 4,-0.667 6,-1 1.563,-1.947 3.563,-3.114 6,-3.5 -9.102,7.259 -18.102,14.759 -27,22.5 -1.284,0.684 -2.451,0.517 -3.5,-0.5 -7.94,-42.639 -15.773,-85.305 -23.5,-128 z"
           id="path46" /></g><g
         id="g47"><path
           style="opacity:0.749"
           fill="#a57d4b"
           d="m 183.5,666.5 c 6.148,39.37 12.481,78.703 19,118 1.052,0.149 2.052,-0.017 3,-0.5 2,-2.333 4,-4.667 6,-7 3.894,-3.404 7.894,-6.571 12,-9.5 -5.879,6.378 -11.879,12.545 -18,18.5 -1.988,0.18 -3.988,0.014 -6,-0.5 -1.301,-8.173 -2.135,-16.506 -2.5,-25 -0.739,-1.721 -1.573,-3.387 -2.5,-5 -1.407,-12.036 -3.074,-24.036 -5,-36 -4.133,-16.107 -6.466,-32.441 -7,-49 0.011,-1.545 0.344,-2.878 1,-4 z"
           id="path47" /></g><g
         id="g48"><path
           style="opacity:0.212"
           fill="#a37b4a"
           d="m 846.5,746.5 c 0.166,4.014 -10e-4,8.014 -0.5,12 -1.864,6.351 -3.031,12.851 -3.5,19.5 0.065,2.225 0.398,4.392 1,6.5 -0.333,1.667 -1.333,2.667 -3,3 -4.655,-1.992 -8.988,-4.492 -13,-7.5 -0.727,-1.399 -1.227,-2.899 -1.5,-4.5 -4.783,-4.954 -9.616,-9.62 -14.5,-14 2.45,1.277 4.783,2.777 7,4.5 7.203,6.372 14.203,12.872 21,19.5 2.069,-13.181 4.402,-26.181 7,-39 z"
           id="path48" /></g><g
         id="g49"><path
           style="opacity:1"
           fill="#a27841"
           d="m 862.5,796.5 c -1.079,10.054 -2.579,20.054 -4.5,30 -0.561,0.522 -1.228,0.855 -2,1 -12.009,-9.183 -23.842,-18.517 -35.5,-28 1.699,-0.16 3.366,0.006 5,0.5 1.858,1.982 4.191,3.148 7,3.5 1.995,2.889 4.662,4.889 8,6 3.569,6.441 8.902,10.441 16,12 2.143,-8.502 3.31,-17.168 3.5,-26 0.333,-1 0.667,-2 1,-3 0.21,1.558 0.71,2.891 1.5,4 z"
           id="path49" /></g></g><path
       style="fill:#182d45;fill-opacity:1;stroke-width:0.264583"
       d="m 125.82225,11.485702 c -0.0364,0 0.0193,0.0027 -0.0226,-0.01131 -0.0143,-0.0048 -0.0309,0.0048 -0.0452,0 -0.0319,-0.01064 -0.0582,-0.02751 -0.0904,-0.03391 -0.0348,-0.007 -0.066,-0.0062 -0.10174,-0.01131 -0.0356,-0.0051 -0.0367,-0.02612 -0.0678,-0.03392 -0.011,-0.0027 -0.0238,0.0051 -0.0339,0 -0.0194,-0.0097 -0.0204,-0.02771 -0.0452,-0.03391 -0.007,-0.0018 -0.0156,0.0034 -0.0226,0 -0.0349,-0.01748 -0.0533,-0.06464 -0.0791,-0.09044 -0.0175,-0.01758 -0.0476,-0.03009 -0.0678,-0.04522 -0.0304,-0.0228 -0.026,-0.03729 -0.0565,-0.06783 -0.0358,-0.03581 -0.0722,-0.05985 -0.11305,-0.09044 -0.0271,-0.02032 -0.0288,-0.05396 -0.0565,-0.06783 -0.015,-0.0075 -0.0667,0.03527 -0.0565,-0.02261 -0.0201,-0.01338 -0.0377,-0.03015 -0.0565,-0.04522 -0.0264,0 -0.0541,0.0083 -0.0791,0 -0.0129,-0.0043 -0.01,-0.02904 -0.0226,-0.03391 -0.0393,-0.01512 -0.0832,-0.01347 -0.12436,-0.02261 -0.1962,-0.0436 0.0739,-1.86e-4 -0.22609,-0.07913 -0.0219,-0.0058 -0.0453,0.0017 -0.0678,0 -0.0266,-0.002 -0.0526,-0.0087 -0.0791,-0.01131 -0.0327,-0.0033 -0.0695,0.0064 -0.10174,0 -0.0191,-0.0038 -0.0376,-0.01787 -0.0565,-0.02261 -0.007,-0.0018 -0.0155,0.0024 -0.0226,0 -0.0146,-0.0049 -0.0307,-0.02906 -0.0452,-0.03391 -0.006,-0.0019 -0.0417,-0.0042 -0.0452,-0.01131 -0.0126,-0.02528 0.006,-0.04522 -0.0452,-0.04522"
       id="path50" /><path
       style="fill:#182d45;fill-opacity:1;stroke-width:0.264583"
       d="m 122.67981,10.637827 c 0.0791,-0.03391 1.08526,0.373059 1.08526,0.373059"
       id="path51" /><path
       style="fill:#182d45;fill-opacity:1;stroke-width:0.264583"
       d="m 123.15461,10.818704 c -0.2374,0.395669 -0.2374,0.395669 -0.2374,0.395669"
       id="path52" /><path
       style="fill:#182d45;fill-opacity:1;stroke-width:0.264583"
       d="m 121.11975,8.9110169 1.09656,0.5539367 2.75838,1.3622294 3.23317,1.650502 2.26097,1.175701 1.57984,0.839382 2.99578,1.630719 3.25296,1.820074 1.26331,0.686768 -0.82243,0.830903 -18.29683,-9.9199717 z"
       id="path53" /><path
       style="fill:#ffffff;fill-opacity:1;stroke-width:0.264583"
       d="m 208.2968,54.579628 1.59963,0.830903 z"
       id="path55" /><path
       style="fill:#182d45;fill-opacity:1;stroke-width:0.264583"
       d="m 208.8903,54.896162 c 0,0 1.80877,0.367406 0,0 z"
       id="path56" /><path
       style="fill:#182d45;fill-opacity:1;stroke-width:0.264583"
       d="m 208.38724,54.624848 c -0.25634,0.168917 2.63825,0.513738 -0.0452,1.938774 -2.68595,1.426364 0.0452,-1.938774 0.0452,-1.938774 z"
       id="path57"
       sodipodi:nodetypes="csc" /><path
       style="fill:#182d45;fill-opacity:1;stroke-width:0.264583"
       d="m 153.17721,84.724543 c 0,0 -0.17363,1.674315 1.9141,0.760677 2.08772,-0.91364 -1.9141,-0.760677 -1.9141,-0.760677 z"
       id="path61" /><path
       style="fill:#182d45;fill-opacity:1;stroke-width:0.264583"
       d="m 153.18961,84.592252 c 0,0 -0.42168,1.93063 2.11667,0.806151 2.53835,-1.12448 -2.11667,-0.806151 -2.11667,-0.806151 z"
       id="path64" /><path
       style="fill:#ffffff;fill-opacity:1;stroke-width:0.264583"
       d="m 153.20925,84.437222 c 0,0 -0.0651,0.432014 -0.0258,0.679029 0.0393,0.247012 -0.19017,-0.106455 -0.19017,-0.114723 0,-0.0083 0.12299,-0.535366 0.12299,-0.535366 z"
       id="path65" /><path
       style="fill:#182d45;fill-opacity:0.948187;stroke-width:0.264583"
       d="m 155.75131,54.887137 c 0,0 1.1927,0.128625 0.83021,2.6894 -0.36248,2.560777 4.10426,-1.894271 4.10426,-1.894271 l -5.06309,-2.6894 -2.91157,0.748353 z"
       id="path66" /><path
       style="fill:#182d45;fill-opacity:1;stroke-width:0.264583"
       d="m 54.363606,54.777018 c 0,0 -1.546159,0.446484 -1.314648,1.901692 0.23151,1.455209 -1.372526,-0.545703 -1.372526,-0.545703 l 1.471744,-2.24069 3.332097,-0.173633 0.388606,0.07441 z"
       id="path67" /><path
       style="fill:#182d45;fill-opacity:1;stroke-width:0.264583"
       d="m 55.446744,74.777864 0.868164,6.011002 0.65319,4.869987 c 0,0 0.115755,1.149284 -1.488281,0.272852 -1.604036,-0.876433 -2.141471,-10.897526 -2.141471,-10.897526 z"
       id="path69" /><path
       style="fill:#182d45;fill-opacity:1;stroke-width:0.264583"
       d="m 55.604875,75.881671 0.382405,2.557984 0.365868,2.549715 0.212908,1.540992 0.282152,2.134237 0.09509,0.747242 0.02585,0.266649 -0.477125,-0.743159 -1.335929,-9.04749 z"
       id="path70" /><path
       style="fill:#182d45;fill-opacity:1;stroke-width:0.264583"
       d="m 1.2219229,54.986528 c 0,0 -1.46747678,0.596344 -0.035079,1.368086 1.4323976,0.771742 0.035079,-1.368086 0.035079,-1.368086 z"
       id="path72" /><path
       style="fill:#182d45;fill-opacity:1;stroke-width:0.264583"
       d="m 1.0757598,55.056687 c 0,0 -1.2160763,0.572958 0.1169304,1.303774 1.3330068,0.730814 1.2745416,-1.064066 1.245309,-1.081606 -0.029233,-0.01754 -1.3622394,-0.222168 -1.3622394,-0.222168 z"
       id="path74" /><path
       style="fill:#182d45;fill-opacity:1;stroke-width:0.264583"
       d="m 0.93327637,56.198118 0.11782223,0.08372 0.00517,-0.08372 z"
       id="path75" /><path
       style="fill:#182d45;fill-opacity:1;stroke-width:0.264583"
       d="m 148.58008,84.493033 -1.78594,13.683919 -0.63666,4.824518 c 0.027,-0.18796 0.005,0.41898 -1.05006,0.10748 -1.05834,-0.31419 -0.41341,-3.07991 -0.41341,-3.07991 l 2.56315,-15.602153 z"
       id="path76"
       sodipodi:nodetypes="ccccccc" /><path
       style="fill:#b8923e;fill-opacity:1;stroke-width:0.264583"
       d="m 93.199388,117.57938 c 0,0 -4.241512,2.27687 -6.697176,4.60851 -2.455664,2.33164 -0.985652,0.79124 -2.811197,2.50527 -2.811824,2.64005 -2.836003,2.75332 -4.564063,4.75423 -1.728065,2.00092 -1.107943,0.98392 -3.373437,4.63021 -2.265495,3.64629 -2.298568,4.69636 -2.695443,6.12676 -0.396875,1.4304 -1.5875,-1.65365 -1.5875,-1.65365 l 6.970117,-10.63294 11.170378,-12.7 z"
       id="path78"
       sodipodi:nodetypes="cssssscccc" /><path
       style="fill:#b8923e;fill-opacity:1;stroke-width:0.264583"
       d="m 90.272525,119.4015 -0.964282,0.57464 c 0,0 -0.385506,0.26768 -0.391708,0.27388 -0.0062,0.006 -0.577741,0.44752 -0.577741,0.44752 l -0.586013,0.46095 -0.611849,0.49403 -0.454752,0.37931 -0.360701,0.31936 -0.182936,0.15502 -0.337963,-0.29662 3.951208,-3.23581 z"
       id="path79" /><path
       style="fill:#b8923e;fill-opacity:1;stroke-width:0.264583"
       d="m 86.113606,122.53102 c 0,0 -0.930177,0.76481 -1.506884,1.30638 -0.57671,0.54157 -0.990121,0.91571 -0.990121,0.91571 l -1.105877,-1.69706 3.044775,-0.64079 z"
       id="path80" /><path
       style="fill:#b8933e;fill-opacity:1;stroke-width:0.264583"
       d="m 75.870302,133.89117 c 0,0 -0.264557,0.43849 -0.439952,0.76005 -0.175395,0.32156 -0.293788,0.54519 -0.469183,0.87698 -0.175395,0.33179 -0.396102,0.8112 -0.396102,0.8112 0,0 -0.255786,0.54811 -0.37564,0.82729 -0.119854,0.27917 -0.450181,1.0933 -0.450181,1.0933 l -0.318635,0.86528 c 0,0 -0.238246,0.68551 -0.352253,1.07284 -0.114009,0.38733 -0.178318,0.59196 -0.293788,1.01729 -0.115469,0.42534 -0.195857,0.7469 -0.283556,1.13423 -0.0877,0.38733 -0.190011,0.84774 -0.238247,1.09622 -0.04823,0.24848 -0.08624,0.7352 -0.08624,0.7352 l -0.523263,-0.3581 -0.2514,-1.48355 0.912056,-3.44945 1.613641,-3.74762 1.216075,-1.6838 z"
       id="path82" /><path
       style="fill:#b8933e;fill-opacity:1;stroke-width:0.264583"
       d="m 73.324142,155.30113 c 0,0 0.432642,1.30085 0.61096,1.72765 0.178319,0.4268 0.344945,0.90914 0.65481,1.6341 0.309866,0.72497 0.377102,0.84775 0.882824,1.9732 0.505725,1.12546 0.479417,0.97929 1.116687,2.17783 0.63727,1.19854 1.154687,2.03167 1.154687,2.03167 l 0.198781,0.31279 c 0,0 0.660657,0.92959 -0.347866,0.73666 -1.008525,-0.19294 -2.74202,-0.51449 -2.74202,-0.51449 0,0 -2.256755,-0.40634 -3.124964,-0.44726 -0.868209,-0.0409 -2.671861,-0.0789 -3.461139,-0.076 -0.789281,0.003 -1.479172,0.006 -2.511081,0.0438 -1.031912,0.038 -1.482095,0.0614 -2.36492,0.11985 -0.882825,0.0585 -2.21583,0.16663 -3.051881,0.25725 -0.836055,0.0906 -2.326918,0.28063 -2.885261,0.35664 -0.558342,0.076 -2.639702,0.41218 -3.466986,0.5905 -0.827283,0.17832 -1.359315,0.25724 -2.344454,0.4911 -0.985139,0.23386 -0.970523,0.25141 -0.970523,0.25141 l -1.134224,0.37417 6.729343,-14.58414 z"
       id="path83" /><path
       style="fill:#ffffff;fill-opacity:1;stroke-width:0.264583"
       d="m 77.950797,165.17028 c 0,0 0.180867,0.27182 0.196369,0.43821 0.0155,0.1664 0.223242,-0.12195 0.223242,-0.12195 l -0.346231,-0.33073 z"
       id="path84" /><path
       style="fill:#b8933e;fill-opacity:1;stroke-width:0.264583"
       d="m 31.267193,169.37371 c 0,0 0.280633,0.87698 0.666504,4.68891 0.385871,3.81193 0.724969,2.52569 2.139826,1.41486 1.414859,-1.11084 4.805841,-3.29744 4.805841,-3.29744 l -4.291346,-1.99951 z"
       id="path85" /><path
       style="fill:#b8933e;fill-opacity:1;stroke-width:0.264583"
       d="m 31.360737,169.82974 c 0,0 0.45603,3.47868 0.602191,4.49012 0.146164,1.01145 2.303532,-1.74811 2.303532,-1.74811 z"
       id="path86" /><path
       style="fill:#b8933e;fill-opacity:1;stroke-width:0.264583"
       d="m 152.9457,91.024934 c 0,0 -1.14101,0.206705 -1.65364,2.4722 -0.51263,2.265495 -0.43822,1.273308 -0.65319,3.704167 -0.21498,2.430862 -0.61185,5.357809 -0.61185,5.357809 l -0.59532,4.2416 c 0,0 -0.0496,1.54616 -1.59576,1.07487 -1.54616,-0.47128 -3.81166,-1.09967 -3.81166,-1.09967 l 5.74642,2.35645 2.01745,-2.96003 3.68763,-4.57233 -0.42995,-9.491928 z"
       id="path87" /><path
       style="fill:#b8933e;fill-opacity:1;stroke-width:0.264583"
       d="m 151.63537,92.375028 c 0,0 -0.64897,1.993665 -0.82436,3.110349 -0.1754,1.116688 1.12837,-0.906211 1.12837,-0.906211 l 0.0935,-2.309373 z"
       id="path88" /><path
       style="fill:#b8933e;fill-opacity:1;stroke-width:0.264583"
       d="m 116.99957,101.83771 c 0,0 -0.60119,-0.0936 -0.28694,0.59772 0.31425,0.69135 0.41803,0.0102 0.41803,0.0102 z"
       id="path89" /><path
       style="fill:#b8923e;fill-opacity:1;stroke-width:0.264583"
       d="m 137.46632,165.19783 c 0,0 -0.74105,0.0526 -1.31108,0.11839 -0.57004,0.0658 -0.54081,0.0614 -0.70451,0.0775 -0.1637,0.0161 -0.74104,0.0877 -0.74104,0.0877 l -0.36687,0.0512 -0.78344,0.10817 c 0,0 -0.53701,0.0732 -0.92252,0.14142 -0.3855,0.0682 -0.30385,0.0506 -0.80201,0.13539 -0.49817,0.0848 -0.67593,0.11472 -0.98082,0.1757 -0.30489,0.061 -0.47233,0.0827 -0.81856,0.16019 -0.34623,0.0775 -0.26045,0.0465 -0.93844,0.19741 -0.678,0.15089 -0.99632,0.22634 -0.99632,0.22634 0,0 -0.26665,0.0641 -1.00976,0.24495 -0.74311,0.18087 -1.11208,0.0217 -1.74046,-0.3421 -0.62839,-0.3638 8.19795,-5.00228 8.19795,-5.00228 l 4.61367,2.16628 z"
       id="path91" /><path
       style="fill:#b8923e;fill-opacity:1;stroke-width:0.264583"
       d="m 108.89258,128.20716 c 0,0 -1.30638,2.3151 -3.175,6.36654 -1.86862,4.05143 -1.43868,9.37617 -1.00873,10.51718 0.42995,1.14102 -0.19843,2.0836 3.50573,6.97839 3.70417,4.89479 6.13503,6.51536 7.09414,7.32565 0.95912,0.81029 6.03581,4.72943 7.5737,5.68854 1.53789,0.95912 0.44648,0.29766 0.44648,0.29766 l 1.40974,0.83922 c 0,0 1.19542,0.95508 2.94938,0.55167 1.75395,-0.40341 -7.15378,-8.55118 -7.15378,-8.55118 l -9.45885,-20.24062 z"
       id="path92" /><path
       style="fill:#b8923e;fill-opacity:1;stroke-width:0.264583"
       d="m 186.59756,89.820101 c 0,0 3.45511,2.100499 4.49,3.360622 2.04615,2.491466 -31.32884,-1.949084 -31.32884,-1.949084 z"
       id="path93"
       sodipodi:nodetypes="cscc" /><path
       style="fill:#b8923e;fill-opacity:1;stroke-width:0.264583"
       d="m 191.14761,93.276855 c 0,0 0.1574,0.282182 0.0756,1.732119 -0.0819,1.449936 -0.44434,3.439765 -0.44434,3.439765 l -0.63744,2.779931 -0.52702,3.21943 -0.48526,2.98172 -0.66066,3.71839 -0.66065,3.40267 -0.27479,1.27454 -1.84165,-1.05821 1.8475,1.05821 -0.46188,2.89988 -0.53788,3.50791 -0.39756,2.438 -1.25115,6.84043 -0.32741,2.11644 -0.39756,2.57539 -0.3771,2.36784 -0.38587,2.34738 -0.47357,2.81802 -0.54001,2.98301 -0.98886,4.45961 -0.53788,3.46115 -0.63727,4.0341 -0.95298,6.02191 -0.74251,4.63045 -0.50865,3.18635 -0.47941,2.90572 -0.0409,0.29233 c 0,0 -0.29817,0.6665 -1.55517,-0.21048 -1.257,-0.87698 -1.7598,-1.21607 -1.7598,-1.21607 0,0 2.35614,-20.89547 2.35614,-21.05917 0,-0.16371 4.3732,-18.80241 4.3732,-18.80241 0,0 1.67891,11.2813 -0.0234,0.91205 -1.70229,-10.36925 -1.66922,-10.71651 -1.66922,-10.71651 l 4.87826,-10.03763 1.83555,-11.50938 2.41432,-9.988017 z"
       id="path94"
       sodipodi:nodetypes="cccccccccccccccccccccccccccccscscsccccc" /><path
       style="fill:#b8933e;fill-opacity:1;stroke-width:0.264583"
       d="m 22.766352,90.235203 c 0,0 -2.759558,1.508403 -3.624843,2.525696 -0.865285,1.017294 3.262359,-0.362484 3.262359,-0.362484 z"
       id="path97" /><path
       style="fill:#ffffff;fill-opacity:0;stroke-width:0.264583"
       d="m 19.503994,92.41011 -0.982216,2.467231 -1.555175,-2.291837 z"
       id="path98" /><path
       style="fill:#b8933e;fill-opacity:1;stroke-width:0.264583"
       d="m 19.492301,92.433493 c 0,0 -1.262849,0.584653 -0.970523,2.490619 0.292326,1.905965 1.122532,6.255778 1.122532,6.255778 l 1.216076,6.66503 0.947137,5.8816 0.795127,4.60706 1.017294,6.04531 1.917659,10.62897 0.561266,3.11035 1.028987,6.46625 1.134226,6.84043 1.145919,6.19731 1.204383,8.18513 0.806818,4.34981 0.666504,5.14494 5.706205,-35.59362 -6.875508,-21.23456 z"
       id="path99" /><path
       style="fill:#b8933e;fill-opacity:1;stroke-width:0.264583"
       d="m 45.458723,84.865103 9.872266,5.208984 1.488281,0.859896 c 0,0 1.752865,1.190625 2.199349,5.225521 0.446484,4.034896 1.554427,11.658206 1.554427,11.658206 0,0 -0.165364,0.59531 1.07487,0.21497 1.240234,-0.38034 8.185547,-2.43086 8.185547,-2.43086 5.478949,-1.52634 10.858634,-2.58917 16.156119,-3.45612 0,0 5.936589,-0.84336 14.552088,-1.00872 8.61549,-0.16537 -26.992439,10.13401 -26.992439,10.13401 L 54.980681,109.8912 50.934889,95.999873 c 0,0 1.122532,-2.174907 -0.02339,-0.140317 -1.145918,2.034586 -10.780985,-7.810952 -10.780985,-7.810952 z"
       id="path100"
       sodipodi:nodetypes="cccscsccscccscc" /><path
       style="fill:#ffffff;fill-opacity:0;stroke-width:0.264583"
       d="m 99.408918,101.15351 c 0,0 3.067512,-0.0248 3.406512,1.48002 0.339,1.50482 1.81074,-0.42995 1.81074,-0.42995 l -1.11621,-2.207617 z"
       id="path104" /><path
       style="fill:#b8933e;fill-opacity:1;stroke-width:0.264583"
       d="m 99.293163,101.15351 c 0,0 3.196347,-0.15486 3.558827,1.62248 0.36249,1.77734 0.41511,2.00536 0.45019,3.51376 0.0351,1.5084 -1.37978,4.1101 -1.37978,4.1101 0,0 -1.01145,1.57272 -1.67211,2.19245 -0.660654,0.61973 -3.455291,-7.09768 -3.455291,-7.09768 z"
       id="path105" /><path
       style="fill:#ad782d;fill-opacity:1;stroke-width:0.264583"
       d="m 17.313672,108.97526 1.736328,10.23607 1.653646,10.33528 1.438671,7.90443 1.537891,9.02891 1.686719,9.37617 1.86862,11.85664 1.008723,6.15156 0.892969,5.34128 c 0,0 0.644922,3.98528 0.628386,3.96875 -0.01654,-0.0165 0.01654,0.0992 0.01654,0.0992 0,0 0.06615,1.0914 1.091406,0 1.025261,-1.09141 5.101498,-4.62194 5.101498,-4.62194 0,0 4.787304,-3.27422 6.556705,-4.17546 1.769401,-0.90124 4.936133,-2.6293 9.169466,-3.81165 4.233334,-1.18236 6.126758,-1.57097 10.136849,-1.96784 4.010091,-0.39688 9.004102,-0.0413 9.004102,-0.0413 0,0 3.621484,0.21497 6.151562,0.62011 2.530078,0.40515 4.39043,0.3142 5.547982,1.63711 1.157552,1.32292 2.662369,2.91869 2.662369,2.91869 0,0 0.719336,1.30638 -1.289843,1.01699 -2.00918,-0.28939 -5.242057,-0.74414 -6.581511,-0.68626 -1.339453,0.0579 -3.199804,-0.0909 -5.299934,0.0827 -2.100131,0.17363 -6.35,0.44648 -8.714714,0.96738 -2.364713,0.5209 -4.076237,0.7028 -6.564974,1.54616 -2.488737,0.84336 -4.373893,1.46348 -5.705078,1.99264 -1.331185,0.52917 -3.596679,1.47175 -5.539713,2.38952 -1.943034,0.91778 -1.794206,0.83509 -4.820378,2.48047 -3.026172,1.64538 -4.406966,2.62103 -4.406966,2.62103 0,0 -3.886068,2.45566 -4.39043,3.08405 -0.504361,0.62838 -2.836002,-0.62839 -2.836002,-0.62839 l 2.629297,0.42995 0.28112,0.14056 -1.471745,1.19063 -1.35599,1.13274 -2.141471,1.80248 c 0,0 -1.107943,1.30638 -1.30638,-0.0331 -0.198438,-1.33945 -0.917774,-4.9692 -0.917774,-4.9692 l -0.859896,-4.67155 -0.876432,-4.71289 -0.859896,-4.70462 -0.768945,-4.25814 -0.859896,-4.72116 -0.752409,-3.82819 -0.719336,-3.52227 -0.611849,-3.37343 -0.487825,-2.86081 -0.529167,-2.88561 -0.810286,-3.82819 -0.768945,-3.86127 -0.711068,-4.27467 -2.52181,-13.82448 -1.583929,-9.61258 c 0.04092,-0.53399 -0.01448,-1.11215 0.121314,-1.62242 0.03409,-0.0648 0.144259,-0.23964 0.533496,-0.74543 2.701598,-3.51057 3.862889,-3.56144 2.847255,-3.03434 l 0.935444,-0.77759 c 0,0 1.32716,-1.18684 1.572714,0.12863 0.245554,1.31546 0.253524,1.57467 0.253524,1.57467 z"
       id="path106"
       sodipodi:nodetypes="cccccccccscscssscsscsssssssscsccccccscccccccccccccccccsccscc" /><path
       style="fill:#000000;fill-opacity:0;stroke-width:0.264583"
       d="m 12.005469,119.31881 -0.93431,-5.78776 -0.0083,-0.38034 -1.0914058,-0.19016 -0.3472656,1.48828 0.5374354,4.29948 z"
       id="path107" /><path
       style="fill:#ffffff;fill-opacity:0;stroke-width:0.264583"
       d="m 12.184532,120.23074 -0.98935,-5.7323 -0.148828,-1.09141 -1.8851562,2.01745 0.3307292,2.89388 1.240234,2.53008 z"
       id="path108"
       sodipodi:nodetypes="ccccccc" /><path
       style="fill:#ad782d;fill-opacity:1;stroke-width:0.264583"
       d="m 192.42649,109.49616 -0.77721,4.39043 -0.41341,2.37298 -0.63665,3.73724 -0.47129,2.77812 -0.52917,3.24115 -0.43822,2.63756 -0.43821,2.76986 -0.81856,4.17546 -0.77721,4.20853 -0.50436,3.38997 -0.68626,4.0597 -0.90124,4.89479 -1.0666,6.23425 -1.46348,9.26041 -0.5209,3.4892 -0.47129,2.19108 -0.55397,3.9026 -0.84336,4.74596 -0.24804,1.39733 c 0,0 -0.0248,0.71934 -0.94258,-0.16536 -0.91778,-0.8847 -2.52181,-2.38952 -2.52181,-2.38952 l -5.44877,-4.11758 c 0,0 -2.6541,-1.7942 -4.96093,-2.91868 -2.30684,-1.12448 -6.37481,-2.57142 -6.37481,-2.57142 0,0 -2.43913,-0.77721 -3.04271,-0.94258 -0.60358,-0.16536 -3.73351,-0.84882 -4.91959,-1.01699 -1.10795,-0.15709 -4.0597,-0.51263 -4.0597,-0.51263 0,0 -4.24987,-0.38861 -5.02709,-0.27285 -0.77721,0.11575 -1.4304,-0.0827 -5.10976,0.30592 -3.67936,0.38861 -5.13992,0.74506 -5.13992,0.74506 0,0 -1.66483,0.56959 -0.003,1.05742 1.66191,0.48782 1.0418,0.76894 3.95221,2.158 2.91042,1.38907 2.2903,1.02526 5.47357,1.48002 3.18327,0.45475 5.58932,1.08313 5.58932,1.08313 l 4.33256,1.05834 4.14238,1.29811 5.3082,1.96784 c 0,0 5.47357,2.43086 5.92005,2.8112 0.44649,0.38033 3.53881,2.05052 3.53881,2.05052 l 2.09186,1.23196 c 0,0 2.73678,1.55443 3.52226,2.30684 0.78548,0.75241 3.21634,2.46393 3.3321,2.66237 0.11575,0.19844 2.76159,2.06706 2.91868,2.28203 0.1571,0.21497 1.0418,0.79375 1.0418,0.79375 0,0 0.5457,0.5209 0.68626,-0.28939 0.14056,-0.81028 0.66146,-4.01836 0.66146,-4.01836 l 0.76068,-3.97702 1.02526,-5.47356 0.81029,-4.32429 0.9095,-4.92786 1.21543,-6.5319 0.94258,-5.0767 0.90124,-4.82864 0.96738,-5.25033 1.19889,-6.54843 0.87643,-4.77077 0.95912,-5.29167 0.81029,-4.3987 1.0914,-5.95312 1.00046,-5.50664 0.51263,-2.23242 c 0,0 0.25631,-1.69499 -0.65319,-3.06752 -0.90951,-1.37252 -3.6959,-3.91914 -3.96048,-4.02662 -0.26459,-0.10749 -0.57878,-0.0992 -0.57878,-0.0992 0,0 -0.7276,-0.12403 -0.95085,1.04179 -0.22324,1.16582 -0.23978,1.28985 -0.23978,1.28985 z"
       id="path110"
       sodipodi:nodetypes="ccccccccccccccccccccsccscsscsscsssccccsccssscsccccccccccccccccsscscc" /><path
       style="fill:#ffffff;fill-opacity:1;stroke-width:0.264583"
       d="m 197.5528,110.50901 c 0,0 0.3514,0.39275 0.5333,0.66146 0.1819,0.26872 0.15503,-0.49196 0.15503,-0.49196 l -0.4899,-0.38033 z"
       id="path112" /><path
       style="fill:#ad782d;fill-opacity:1;stroke-width:0.264583"
       d="m 131.7625,170.35032 2.46238,1.2487 1.45676,-0.29785 -2.4474,-0.77721 z"
       id="path116"
       sodipodi:nodetypes="ccccc" /></g></svg>
